<?xml version="1.0" encoding="UTF-8" standalone="no"?> <svg width="380" height="280" viewBox="0 0 380 280" xmlns="http://www.w3.org/2000/svg"> <defs> <style> .axis { stroke:#111; stroke-width:1; fill:none; } .tick { stroke:#111; stroke-width:0.8; } .grid { stroke:#bbb; stroke-width:0.3; stroke-dasharray:3 3; } .label { font-family: 'Helvetica, Arial, sans-serif'; font-size:12px; fill:#111; } .title { font-family: 'Helvetica, Arial, sans-serif'; font-size:13px; fill:#111; font-weight:600; } .point { stroke:none; } .pareto { stroke:#0A7; stroke-width:2; fill:none; } .legend { font-size:11px; } </style> </defs> <!-- Margins --> <g transform="translate(50,20)"> <!-- Grid --> <g> <!-- vertical grid --> <path class="grid" d="M0 0 V220"/> <path class="grid" d="M55 0 V220"/> <path class="grid" d="M110 0 V220"/> <path class="grid" d="M165 0 V220"/> <path class="grid" d="M220 0 V220"/> <path class="grid" d="M275 0 V220"/> <!-- horizontal grid --> <path class="grid" d="M0 0 H275"/> <path class="grid" d="M0 44 H275"/> <path class="grid" d="M0 88 H275"/> <path class="grid" d="M0 132 H275"/> <path class="grid" d="M0 176 H275"/> <path class="grid" d="M0 220 H275"/> </g></g>
    <!-- Axes -->
<path class="axis" d="M0 220 H275"/>
<path class="axis" d="M0 220 V0"/>

<!-- Ticks -->
<g>
  <!-- x ticks -->
  <g transform="translate(0,220)"><path class="tick" d="M0 0 V5"/><text class="label" x="-5" y="18">0</text></g>
  <g transform="translate(55,220)"><path class="tick" d="M0 0 V5"/><text class="label" x="-6" y="18">1</text></g>
  <g transform="translate(110,220)"><path class="tick" d="M0 0 V5"/><text class="label" x="-6" y="18">2</text></g>
  <g transform="translate(165,220)"><path class="tick" d="M0 0 V5"/><text class="label" x="-6" y="18">3</text></g>
  <g transform="translate(220,220)"><path class="tick" d="M0 0 V5"/><text class="label" x="-6" y="18">4</text></g>
  <g transform="translate(275,220)"><path class="tick" d="M0 0 V5"/><text class="label" x="-6" y="18">5</text></g>
  <!-- y ticks -->
  <g transform="translate(0,220)"><path class="tick" d="M0 0 H-5"/><text class="label" x="-28" y="4">0</text></g>
  <g transform="translate(0,176)"><path class="tick" d="M0 0 H-5"/><text class="label" x="-28" y="4">1</text></g>
  <g transform="translate(0,132)"><path class="tick" d="M0 0 H-5"/><text class="label" x="-28" y="4">2</text></g>
  <g transform="translate(0,88)"><path class="tick" d="M0 0 H-5"/><text class="label" x="-28" y="4">3</text></g>
  <g transform="translate(0,44)"><path class="tick" d="M0 0 H-5"/><text class="label" x="-28" y="4">4</text></g>
  <g transform="translate(0,0)"><path class="tick" d="M0 0 H-5"/><text class="label" x="-28" y="4">5</text></g>
</g>

<!-- Axis labels -->
<text class="label" x="137.5" y="256" text-anchor="middle">F_catalytic(M)</text>
<text class="label" x="-32" y="-12" transform="rotate(-90)" text-anchor="middle">F_temporal(M)</text>
<text class="title" x="137.5" y="-5" text-anchor="middle">Dual-Functionality Optimization</text>

<!-- Sample points -->
<circle class="point" cx="48" cy="165" r="4" fill="#1f77b4"/>
<circle class="point" cx="85" cy="142" r="4" fill="#1f77b4"/>
<circle class="point" cx="115" cy="130" r="4" fill="#1f77b4"/>
<circle class="point" cx="150" cy="118" r="4" fill="#1f77b4"/>
<circle class="point" cx="185" cy="112" r="4" fill="#1f77b4"/>
<circle class="point" cx="215" cy="110" r="4" fill="#1f77b4"/>
<circle class="point" cx="235" cy="112" r="4" fill="#1f77b4"/>
<circle class="point" cx="65" cy="188" r="4" fill="#aaa"/>
<circle class="point" cx="30" cy="202" r="4" fill="#aaa"/>
<circle class="point" cx="200" cy="150" r="4" fill="#aaa"/>

<!-- Pareto front -->
<path class="pareto" d="M40 170 C 70 148, 110 128, 160 116 S 230 106, 260 108"/>
<text class="legend" x="200" y="70" fill="#0A7">Pareto-optimal front</text>
<line x1="160" y1="74" x2="200" y2="70" stroke="#0A7" stroke-width="2"/>

<!-- Highlight optimal -->
<circle cx="185" cy="112" r="6" fill="none" stroke="#0A7" stroke-width="2"/>
<text class="legend" x="195" y="105" fill="#0A7">M*</text>
</g> </svg>