<?xml version="1.0" encoding="UTF-8" standalone="no"?> <svg width="420" height="250" viewBox="0 0 420 250" xmlns="http://www.w3.org/2000/svg"> <defs> <style> .label { font-family:'Helvetica, Arial, sans-serif'; font-size:12px; fill:#111; } .title { font-family:'Helvetica, Arial, sans-serif'; font-size:13px; font-weight:600; fill:#111; } .ring { stroke:#111; stroke-width:1; fill:none; } .node { fill:#1f77b4; } .target { fill:#d62728; } .coupling { stroke:#aaa; stroke-width:1; } .attract { stroke:#d62728; stroke-width:1.6; stroke-dasharray:4 3; marker-end:url(#arr); } </style> <marker id="arr" viewBox="0 0 10 10" refX="9" refY="5" markerWidth="6" markerHeight="6" orient="auto"> <path d="M 0 0 L 10 5 L 0 10 z" fill="#d62728"/> </marker> </defs>
    <text class="title" x="210" y="22" text-anchor="middle">Network Synchronization with Pharmaceutical Coupling</text>
    
    <!-- Ring --> <circle cx="210" cy="130" r="90" class="ring"/> <!-- Target phase --> <circle cx="210" cy="40" r="6" class="target"/> <text class="label" x="225" y="44">θ_target</text> <!-- Nodes (phases) --> <circle cx="210" cy="220" r="5" class="node"/> <circle cx="130" cy="170" r="5" class="node"/> <circle cx="290" cy="170" r="5" class="node"/> <circle cx="120" cy="90" r="5" class="node"/> <circle cx="300" cy="90" r="5" class="node"/> <circle cx="210" cy="40" r="5" class="node" fill="#2ca02c"/> <!-- Couplings --> <line x1="210" y1="220" x2="130" y2="170" class="coupling"/> <line x1="210" y1="220" x2="290" y2="170" class="coupling"/> <line x1="130" y1="170" x2="120" y2="90" class="coupling"/> <line x1="290" y1="170" x2="300" y2="90" class="coupling"/> <line x1="120" y1="90" x2="210" y2="40" class="coupling"/> <line x1="300" y1="90" x2="210" y2="40" class="coupling"/> <!-- Pharmaceutical attraction arrows --> <path class="attract" d="M 210 220 C 210 200, 210 180, 210 160"/> <path class="attract" d="M 130 170 C 150 160, 170 130, 190 100"/> <path class="attract" d="M 290 170 C 270 160, 250 130, 230 100"/> <path class="attract" d="M 120 90 C 150 80, 180 70, 200 60"/> <path class="attract" d="M 300 90 C 270 80, 240 70, 220 60"/>
    <text class="label" x="210" y="240" text-anchor="middle">α_i·[M] pulls phases toward θ_target</text>
    </svg>