<svg width="1200" height="700" xmlns="http://www.w3.org/2000/svg" viewBox="0 0 1200 700">
  <defs>
    <style>
      .title-text { font-family: Arial, sans-serif; font-weight: bold; font-size: 14px; text-anchor: middle; }
      .label-text { font-family: Arial, sans-serif; font-weight: bold; font-size: 12px; }
      .body-text { font-family: Arial, sans-serif; font-size: 11px; }
      .small-text { font-family: Arial, sans-serif; font-size: 10px; }
      .equation-text { font-family: "Times New Roman", serif; font-size: 11px; }
    </style>
  </defs>

  <!-- Urban grid with 3D buildings -->
  <g transform="translate(50, 50)">
    <!-- Building blocks with 3D effect -->
    <g id="buildings">
      <!-- Row 1 -->
      <g transform="translate(0, 0)">
        <rect x="0" y="0" width="72" height="72" fill="#808080" stroke="#cccccc" stroke-width="0.5"/>
        <polygon points="0,72 12,84 84,84 72,72" fill="#b3b3b3"/>
        <polygon points="72,0 84,12 84,84 72,72" fill="#999999"/>
      </g>
      <g transform="translate(80, 0)">
        <rect x="0" y="0" width="72" height="72" fill="#808080" stroke="#cccccc" stroke-width="0.5"/>
        <polygon points="0,72 12,84 84,84 72,72" fill="#b3b3b3"/>
        <polygon points="72,0 84,12 84,84 72,72" fill="#999999"/>
      </g>
      <g transform="translate(160, 0)">
        <rect x="0" y="0" width="72" height="72" fill="#808080" stroke="#cccccc" stroke-width="0.5"/>
        <polygon points="0,72 12,84 84,84 72,72" fill="#b3b3b3"/>
        <polygon points="72,0 84,12 84,84 72,72" fill="#999999"/>
      </g>
      <g transform="translate(240, 0)">
        <rect x="0" y="0" width="72" height="72" fill="#808080" stroke="#cccccc" stroke-width="0.5"/>
        <polygon points="0,72 12,84 84,84 72,72" fill="#b3b3b3"/>
        <polygon points="72,0 84,12 84,84 72,72" fill="#999999"/>
      </g>
      <g transform="translate(320, 0)">
        <rect x="0" y="0" width="72" height="72" fill="#808080" stroke="#cccccc" stroke-width="0.5"/>
        <polygon points="0,72 12,84 84,84 72,72" fill="#b3b3b3"/>
        <polygon points="72,0 84,12 84,84 72,72" fill="#999999"/>
      </g>
      <g transform="translate(400, 0)">
        <rect x="0" y="0" width="72" height="72" fill="#808080" stroke="#cccccc" stroke-width="0.5"/>
        <polygon points="0,72 12,84 84,84 72,72" fill="#b3b3b3"/>
        <polygon points="72,0 84,12 84,84 72,72" fill="#999999"/>
      </g>

      <!-- Row 2 -->
      <g transform="translate(0, 80)">
        <rect x="0" y="0" width="72" height="72" fill="#808080" stroke="#cccccc" stroke-width="0.5"/>
        <polygon points="0,72 12,84 84,84 72,72" fill="#b3b3b3"/>
        <polygon points="72,0 84,12 84,84 72,72" fill="#999999"/>
      </g>
      <g transform="translate(80, 80)">
        <rect x="0" y="0" width="72" height="72" fill="#808080" stroke="#cccccc" stroke-width="0.5"/>
        <polygon points="0,72 12,84 84,84 72,72" fill="#b3b3b3"/>
        <polygon points="72,0 84,12 84,84 72,72" fill="#999999"/>
      </g>
      <g transform="translate(160, 80)">
        <rect x="0" y="0" width="72" height="72" fill="#808080" stroke="#cccccc" stroke-width="0.5"/>
        <polygon points="0,72 12,84 84,84 72,72" fill="#b3b3b3"/>
        <polygon points="72,0 84,12 84,84 72,72" fill="#999999"/>
      </g>
      <g transform="translate(240, 80)">
        <rect x="0" y="0" width="72" height="72" fill="#808080" stroke="#cccccc" stroke-width="0.5"/>
        <polygon points="0,72 12,84 84,84 72,72" fill="#b3b3b3"/>
        <polygon points="72,0 84,12 84,84 72,72" fill="#999999"/>
      </g>
      <g transform="translate(320, 80)">
        <rect x="0" y="0" width="72" height="72" fill="#808080" stroke="#cccccc" stroke-width="0.5"/>
        <polygon points="0,72 12,84 84,84 72,72" fill="#b3b3b3"/>
        <polygon points="72,0 84,12 84,84 72,72" fill="#999999"/>
      </g>
      <g transform="translate(400, 80)">
        <rect x="0" y="0" width="72" height="72" fill="#808080" stroke="#cccccc" stroke-width="0.5"/>
        <polygon points="0,72 12,84 84,84 72,72" fill="#b3b3b3"/>
        <polygon points="72,0 84,12 84,84 72,72" fill="#999999"/>
      </g>

      <!-- Row 3 -->
      <g transform="translate(0, 160)">
        <rect x="0" y="0" width="72" height="72" fill="#808080" stroke="#cccccc" stroke-width="0.5"/>
        <polygon points="0,72 12,84 84,84 72,72" fill="#b3b3b3"/>
        <polygon points="72,0 84,12 84,84 72,72" fill="#999999"/>
      </g>
      <g transform="translate(80, 160)">
        <rect x="0" y="0" width="72" height="72" fill="#808080" stroke="#cccccc" stroke-width="0.5"/>
        <polygon points="0,72 12,84 84,84 72,72" fill="#b3b3b3"/>
        <polygon points="72,0 84,12 84,84 72,72" fill="#999999"/>
      </g>
      <g transform="translate(160, 160)">
        <rect x="0" y="0" width="72" height="72" fill="#808080" stroke="#cccccc" stroke-width="0.5"/>
        <polygon points="0,72 12,84 84,84 72,72" fill="#b3b3b3"/>
        <polygon points="72,0 84,12 84,84 72,72" fill="#999999"/>
      </g>
      <g transform="translate(240, 160)">
        <rect x="0" y="0" width="72" height="72" fill="#808080" stroke="#cccccc" stroke-width="0.5"/>
        <polygon points="0,72 12,84 84,84 72,72" fill="#b3b3b3"/>
        <polygon points="72,0 84,12 84,84 72,72" fill="#999999"/>
      </g>
      <g transform="translate(320, 160)">
        <rect x="0" y="0" width="72" height="72" fill="#808080" stroke="#cccccc" stroke-width="0.5"/>
        <polygon points="0,72 12,84 84,84 72,72" fill="#b3b3b3"/>
        <polygon points="72,0 84,12 84,84 72,72" fill="#999999"/>
      </g>
      <g transform="translate(400, 160)">
        <rect x="0" y="0" width="72" height="72" fill="#808080" stroke="#cccccc" stroke-width="0.5"/>
        <polygon points="0,72 12,84 84,84 72,72" fill="#b3b3b3"/>
        <polygon points="72,0 84,12 84,84 72,72" fill="#999999"/>
      </g>

      <!-- Row 4 -->
      <g transform="translate(0, 240)">
        <rect x="0" y="0" width="72" height="72" fill="#808080" stroke="#cccccc" stroke-width="0.5"/>
        <polygon points="0,72 12,84 84,84 72,72" fill="#b3b3b3"/>
        <polygon points="72,0 84,12 84,84 72,72" fill="#999999"/>
      </g>
      <g transform="translate(80, 240)">
        <rect x="0" y="0" width="72" height="72" fill="#808080" stroke="#cccccc" stroke-width="0.5"/>
        <polygon points="0,72 12,84 84,84 72,72" fill="#b3b3b3"/>
        <polygon points="72,0 84,12 84,84 72,72" fill="#999999"/>
      </g>
      <g transform="translate(160, 240)">
        <rect x="0" y="0" width="72" height="72" fill="#808080" stroke="#cccccc" stroke-width="0.5"/>
        <polygon points="0,72 12,84 84,84 72,72" fill="#b3b3b3"/>
        <polygon points="72,0 84,12 84,84 72,72" fill="#999999"/>
      </g>
      <g transform="translate(240, 240)">
        <rect x="0" y="0" width="72" height="72" fill="#808080" stroke="#cccccc" stroke-width="0.5"/>
        <polygon points="0,72 12,84 84,84 72,72" fill="#b3b3b3"/>
        <polygon points="72,0 84,12 84,84 72,72" fill="#999999"/>
      </g>
      <g transform="translate(320, 240)">
        <rect x="0" y="0" width="72" height="72" fill="#808080" stroke="#cccccc" stroke-width="0.5"/>
        <polygon points="0,72 12,84 84,84 72,72" fill="#b3b3b3"/>
        <polygon points="72,0 84,12 84,84 72,72" fill="#999999"/>
      </g>
      <g transform="translate(400, 240)">
        <rect x="0" y="0" width="72" height="72" fill="#808080" stroke="#cccccc" stroke-width="0.5"/>
        <polygon points="0,72 12,84 84,84 72,72" fill="#b3b3b3"/>
        <polygon points="72,0 84,12 84,84 72,72" fill="#999999"/>
      </g>
    </g>

    <!-- Satellite Coverage -->
    <rect x="0" y="0" width="480" height="320" fill="none" stroke="green" stroke-width="3" opacity="0.4"/>
    <text x="240" y="30" class="body-text" text-anchor="middle" fill="green">120+ Simultaneous Satellites</text>

    <!-- 5G Base Stations with coverage circles -->
    <g id="5g-stations">
      <circle cx="48" cy="60" r="3" fill="red"/>
      <circle cx="48" cy="60" r="60" fill="none" stroke="red" opacity="0.3"/>
      <circle cx="152" cy="84" r="3" fill="red"/>
      <circle cx="152" cy="84" r="60" fill="none" stroke="red" opacity="0.3"/>
      <circle cx="100" cy="172" r="3" fill="red"/>
      <circle cx="100" cy="172" r="60" fill="none" stroke="red" opacity="0.3"/>
      <circle cx="208" cy="72" r="3" fill="red"/>
      <circle cx="208" cy="72" r="60" fill="none" stroke="red" opacity="0.3"/>
      <circle cx="284" cy="128" r="3" fill="red"/>
      <circle cx="284" cy="128" r="60" fill="none" stroke="red" opacity="0.3"/>
      <circle cx="356" cy="28" r="3" fill="red"/>
      <circle cx="356" cy="28" r="60" fill="none" stroke="red" opacity="0.3"/>
      <circle cx="184" cy="204" r="3" fill="red"/>
      <circle cx="184" cy="204" r="60" fill="none" stroke="red" opacity="0.3"/>
      <circle cx="272" cy="188" r="3" fill="red"/>
      <circle cx="272" cy="188" r="60" fill="none" stroke="red" opacity="0.3"/>
      <circle cx="72" cy="248" r="3" fill="red"/>
      <circle cx="72" cy="248" r="60" fill="none" stroke="red" opacity="0.3"/>
      <circle cx="368" cy="112" r="3" fill="red"/>
      <circle cx="368" cy="112" r="60" fill="none" stroke="red" opacity="0.3"/>
      <circle cx="124" cy="148" r="3" fill="red"/>
      <circle cx="124" cy="148" r="60" fill="none" stroke="red" opacity="0.3"/>
      <circle cx="236" cy="244" r="3" fill="red"/>
      <circle cx="236" cy="244" r="60" fill="none" stroke="red" opacity="0.3"/>
      <circle cx="300" cy="52" r="3" fill="red"/>
      <circle cx="300" cy="52" r="60" fill="none" stroke="red" opacity="0.3"/>
      <circle cx="116" cy="36" r="3" fill="red"/>
      <circle cx="116" cy="36" r="60" fill="none" stroke="red" opacity="0.3"/>
      <circle cx="332" cy="216" r="3" fill="red"/>
      <circle cx="332" cy="216" r="60" fill="none" stroke="red" opacity="0.3"/>
      <circle cx="64" cy="156" r="3" fill="red"/>
      <circle cx="64" cy="156" r="60" fill="none" stroke="red" opacity="0.3"/>
      <circle cx="168" cy="104" r="3" fill="red"/>
      <circle cx="168" cy="104" r="60" fill="none" stroke="red" opacity="0.3"/>
      <circle cx="252" cy="16" r="3" fill="red"/>
      <circle cx="252" cy="16" r="60" fill="none" stroke="red" opacity="0.3"/>
      <circle cx="392" cy="168" r="3" fill="red"/>
      <circle cx="392" cy="168" r="60" fill="none" stroke="red" opacity="0.3"/>
      <circle cx="148" cy="284" r="3" fill="red"/>
      <circle cx="148" cy="284" r="60" fill="none" stroke="red" opacity="0.3"/>
      <circle cx="220" cy="92" r="3" fill="red"/>
      <circle cx="220" cy="92" r="60" fill="none" stroke="red" opacity="0.3"/>
      <circle cx="316" cy="232" r="3" fill="red"/>
      <circle cx="316" cy="232" r="60" fill="none" stroke="red" opacity="0.3"/>
      <circle cx="92" cy="44" r="3" fill="red"/>
      <circle cx="92" cy="44" r="60" fill="none" stroke="red" opacity="0.3"/>
      <circle cx="348" cy="140" r="3" fill="red"/>
      <circle cx="348" cy="140" r="60" fill="none" stroke="red" opacity="0.3"/>
      <circle cx="196" cy="268" r="3" fill="red"/>
      <circle cx="196" cy="268" r="60" fill="none" stroke="red" opacity="0.3"/>
    </g>

    <!-- 4G LTE Networks -->
    <g id="4g-stations">
      <circle cx="32" cy="92" r="2" fill="orange"/>
      <circle cx="32" cy="92" r="80" fill="none" stroke="orange" opacity="0.2"/>
      <circle cx="108" cy="64" r="2" fill="orange"/>
      <circle cx="108" cy="64" r="80" fill="none" stroke="orange" opacity="0.2"/>
      <circle cx="164" cy="152" r="2" fill="orange"/>
      <circle cx="164" cy="152" r="80" fill="none" stroke="orange" opacity="0.2"/>
      <circle cx="256" cy="36" r="2" fill="orange"/>
      <circle cx="256" cy="36" r="80" fill="none" stroke="orange" opacity="0.2"/>
      <circle cx="328" cy="164" r="2" fill="orange"/>
      <circle cx="328" cy="164" r="80" fill="none" stroke="orange" opacity="0.2"/>
      <circle cx="76" cy="228" r="2" fill="orange"/>
      <circle cx="76" cy="228" r="80" fill="none" stroke="orange" opacity="0.2"/>
      <circle cx="144" cy="116" r="2" fill="orange"/>
      <circle cx="144" cy="116" r="80" fill="none" stroke="orange" opacity="0.2"/>
      <circle cx="232" cy="48" r="2" fill="orange"/>
      <circle cx="232" cy="48" r="80" fill="none" stroke="orange" opacity="0.2"/>
      <circle cx="292" cy="252" r="2" fill="orange"/>
      <circle cx="292" cy="252" r="80" fill="none" stroke="orange" opacity="0.2"/>
      <circle cx="364" cy="136" r="2" fill="orange"/>
      <circle cx="364" cy="136" r="80" fill="none" stroke="orange" opacity="0.2"/>
      <circle cx="88" cy="24" r="2" fill="orange"/>
      <circle cx="88" cy="24" r="80" fill="none" stroke="orange" opacity="0.2"/>
      <circle cx="188" cy="192" r="2" fill="orange"/>
      <circle cx="188" cy="192" r="80" fill="none" stroke="orange" opacity="0.2"/>
      <circle cx="276" cy="100" r="2" fill="orange"/>
      <circle cx="276" cy="100" r="80" fill="none" stroke="orange" opacity="0.2"/>
      <circle cx="344" cy="68" r="2" fill="orange"/>
      <circle cx="344" cy="68" r="80" fill="none" stroke="orange" opacity="0.2"/>
      <circle cx="56" cy="168" r="2" fill="orange"/>
      <circle cx="56" cy="168" r="80" fill="none" stroke="orange" opacity="0.2"/>
    </g>

    <!-- WiFi Access Points (selective pattern) -->
    <g id="wifi-points">
      <circle cx="20" cy="12" r="1" fill="blue"/>
      <circle cx="20" cy="12" r="20" fill="none" stroke="blue" opacity="0.1"/>
      <circle cx="60" cy="44" r="1" fill="blue"/>
      <circle cx="60" cy="44" r="20" fill="none" stroke="blue" opacity="0.1"/>
      <circle cx="100" cy="76" r="1" fill="blue"/>
      <circle cx="100" cy="76" r="20" fill="none" stroke="blue" opacity="0.1"/>
      <circle cx="140" cy="108" r="1" fill="blue"/>
      <circle cx="140" cy="108" r="20" fill="none" stroke="blue" opacity="0.1"/>
      <circle cx="180" cy="140" r="1" fill="blue"/>
      <circle cx="180" cy="140" r="20" fill="none" stroke="blue" opacity="0.1"/>
      <circle cx="220" cy="172" r="1" fill="blue"/>
      <circle cx="220" cy="172" r="20" fill="none" stroke="blue" opacity="0.1"/>
      <circle cx="260" cy="204" r="1" fill="blue"/>
      <circle cx="260" cy="204" r="20" fill="none" stroke="blue" opacity="0.1"/>
      <circle cx="300" cy="236" r="1" fill="blue"/>
      <circle cx="300" cy="236" r="20" fill="none" stroke="blue" opacity="0.1"/>
      <circle cx="340" cy="268" r="1" fill="blue"/>
      <circle cx="340" cy="268" r="20" fill="none" stroke="blue" opacity="0.1"/>
      <circle cx="380" cy="300" r="1" fill="blue"/>
      <circle cx="380" cy="300" r="20" fill="none" stroke="blue" opacity="0.1"/>
    </g>

    <!-- Bluetooth Devices (high density small points) -->
    <g id="bluetooth-devices">
      <!-- Pattern of small purple dots throughout the grid -->
      <circle cx="8" cy="6" r="0.5" fill="purple"/>
      <circle cx="24" cy="18" r="0.5" fill="purple"/>
      <circle cx="40" cy="30" r="0.5" fill="purple"/>
      <circle cx="56" cy="42" r="0.5" fill="purple"/>
      <circle cx="72" cy="54" r="0.5" fill="purple"/>
      <circle cx="88" cy="66" r="0.5" fill="purple"/>
      <circle cx="104" cy="78" r="0.5" fill="purple"/>
      <circle cx="120" cy="90" r="0.5" fill="purple"/>
      <circle cx="136" cy="102" r="0.5" fill="purple"/>
      <circle cx="152" cy="114" r="0.5" fill="purple"/>
      <circle cx="168" cy="126" r="0.5" fill="purple"/>
      <circle cx="184" cy="138" r="0.5" fill="purple"/>
      <circle cx="200" cy="150" r="0.5" fill="purple"/>
      <circle cx="216" cy="162" r="0.5" fill="purple"/>
      <circle cx="232" cy="174" r="0.5" fill="purple"/>
      <circle cx="248" cy="186" r="0.5" fill="purple"/>
      <circle cx="264" cy="198" r="0.5" fill="purple"/>
      <circle cx="280" cy="210" r="0.5" fill="purple"/>
      <circle cx="296" cy="222" r="0.5" fill="purple"/>
      <circle cx="312" cy="234" r="0.5" fill="purple"/>
      <circle cx="328" cy="246" r="0.5" fill="purple"/>
      <circle cx="344" cy="258" r="0.5" fill="purple"/>
      <circle cx="360" cy="270" r="0.5" fill="purple"/>
      <circle cx="376" cy="282" r="0.5" fill="purple"/>
      <circle cx="392" cy="294" r="0.5" fill="purple"/>
      <circle cx="408" cy="306" r="0.5" fill="purple"/>
      <!-- Additional scattered points -->
      <circle cx="12" cy="90" r="0.5" fill="purple"/>
      <circle cx="36" cy="150" r="0.5" fill="purple"/>
      <circle cx="84" cy="210" r="0.5" fill="purple"/>
      <circle cx="132" cy="270" r="0.5" fill="purple"/>
      <circle cx="204" cy="30" r="0.5" fill="purple"/>
      <circle cx="252" cy="90" r="0.5" fill="purple"/>
      <circle cx="300" cy="150" r="0.5" fill="purple"/>
      <circle cx="348" cy="210" r="0.5" fill="purple"/>
      <circle cx="396" cy="270" r="0.5" fill="purple"/>
      <circle cx="60" cy="180" r="0.5" fill="purple"/>
      <circle cx="108" cy="240" r="0.5" fill="purple"/>
      <circle cx="156" cy="300" r="0.5" fill="purple"/>
      <circle cx="228" cy="60" r="0.5" fill="purple"/>
      <circle cx="276" cy="120" r="0.5" fill="purple"/>
      <circle cx="324" cy="180" r="0.5" fill="purple"/>
      <circle cx="372" cy="240" r="0.5" fill="purple"/>
      <circle cx="420" cy="300" r="0.5" fill="purple"/>
    </g>

    <!-- Broadcasting Stations -->
    <g id="broadcast-stations">
      <circle cx="60" cy="72" r="2.5" fill="cyan"/>
      <circle cx="60" cy="72" r="120" fill="none" stroke="cyan" opacity="0.2"/>
      <circle cx="168" cy="124" r="2.5" fill="cyan"/>
      <circle cx="168" cy="124" r="120" fill="none" stroke="cyan" opacity="0.2"/>
      <circle cx="272" cy="28" r="2.5" fill="cyan"/>
      <circle cx="272" cy="28" r="120" fill="none" stroke="cyan" opacity="0.2"/>
      <circle cx="372" cy="96" r="2.5" fill="cyan"/>
      <circle cx="372" cy="96" r="120" fill="none" stroke="cyan" opacity="0.2"/>
      <circle cx="116" cy="208" r="2.5" fill="cyan"/>
      <circle cx="116" cy="208" r="120" fill="none" stroke="cyan" opacity="0.2"/>
      <circle cx="284" cy="184" r="2.5" fill="cyan"/>
      <circle cx="284" cy="184" r="120" fill="none" stroke="cyan" opacity="0.2"/>
      <circle cx="216" cy="52" r="2.5" fill="cyan"/>
      <circle cx="216" cy="52" r="120" fill="none" stroke="cyan" opacity="0.2"/>
      <circle cx="348" cy="244" r="2.5" fill="cyan"/>
      <circle cx="348" cy="244" r="120" fill="none" stroke="cyan" opacity="0.2"/>
    </g>

    <!-- Vehicle Position (consciousness-aware) -->
    <circle cx="240" cy="160" r="3" fill="black"/>
    <circle cx="240" cy="160" r="8" fill="none" stroke="black" stroke-width="2"/>
    <text x="240" y="140" class="small-text" text-anchor="middle">Vehicle Position</text>
    <text x="240" y="180" class="small-text" text-anchor="middle">±10⁻¹² meters</text>
  </g>

  <!-- Legend -->
  <g transform="translate(600, 200)">
    <rect x="0" y="0" width="200" height="220" fill="white" stroke="black" stroke-width="1"/>
    <text x="100" y="20" class="label-text" text-anchor="middle">Signal Sources:</text>
    
    <circle cx="20" cy="40" r="3" fill="red"/>
    <text x="35" y="45" class="body-text">5G: 50,000+ per base</text>
    
    <circle cx="20" cy="60" r="2" fill="orange"/>
    <text x="35" y="65" class="body-text">4G: 6,400+ per base</text>
    
    <circle cx="20" cy="80" r="1" fill="blue"/>
    <text x="35" y="85" class="body-text">WiFi: 800+ per AP</text>
    
    <rect x="17" y="95" width="6" height="6" fill="green"/>
    <text x="35" y="105" class="body-text">Satellites: 120+</text>
    
    <circle cx="20" cy="120" r="0.5" fill="purple"/>
    <text x="35" y="125" class="body-text">Bluetooth: 10,000+</text>
    
    <circle cx="20" cy="140" r="2.5" fill="cyan"/>
    <text x="35" y="145" class="body-text">Broadcast: 500+</text>
    
    <text x="20" y="170" class="label-text">Total: 9,000,000+</text>
    <text x="20" y="185" class="label-text">simultaneous signals</text>
  </g>

</svg>
