<svg xmlns="http://www.w3.org/2000/svg" width="980" height="590" viewBox="0 0 980 590" font-family="Arial, Helvetica, sans-serif"> <defs> <marker id="arrow" markerWidth="10" markerHeight="8" refX="9" refY="4" orient="auto" fill="#333"> <path d="M0,0 L10,4 L0,8 z"/> </marker> <marker id="arrowDashed" markerWidth="10" markerHeight="8" refX="9" refY="4" orient="auto" fill="#555"> <path d="M0,0 L10,4 L0,8 z" fill="#555"/> </marker> <style> .blk { fill:#fff; stroke:#222; stroke-width:1.2; } .core { fill:#f5faff; stroke:#1d6fa5; stroke-width:1.4; } .opt { fill:#fcfcff; stroke:#666; stroke-width:1.2; stroke-dasharray:5 4; } .title { font-weight:bold; font-size:14px; } .label { font-size:11px; } .small { font-size:10px; } .arrow { stroke:#333; stroke-width:1.2; fill:none; marker-end:url(#arrow); } .dashedArrow { stroke:#555; stroke-width:1.1; stroke-dasharray:5 4; fill:none; marker-end:url(#arrowDashed); } .metric { font-size:11px; fill:#0b4b16; } .out { fill:#fff; stroke:#0b4b16; stroke-width:1.2; } .legendBox { fill:#fff; stroke:#444; stroke-width:1; } </style> </defs> <!-- Outer Frame --> <rect x="10" y="10" width="960" height="570" rx="8" ry="8" fill="none" stroke="#222" stroke-width="1.4"/> <text x="30" y="35" class="title">Consumer Hardware Virtual Spectroscopy Integration (Zero Added Cost)</text> <!-- LED Source Cluster --> <rect x="30" y="70" width="190" height="180" class="blk" rx="6"/> <text x="42" y="90" class="title" font-size="13px">Existing LED Sources</text> <circle cx="70" cy="120" r="14" fill="#1f6bff" stroke="#0d2f66" stroke-width="1"/> <text x="90" y="124" class="label">Blue 470 nm</text> <text x="90" y="140" class="small">(Monitor Backlight)</text> <circle cx="70" cy="165" r="14" fill="#1fbf4a" stroke="#116a29" stroke-width="1"/> <text x="90" y="169" class="label">Green 525 nm</text> <text x="90" y="185" class="small">(Status LED)</text> <circle cx="70" cy="210" r="14" fill="#ff4242" stroke="#7a1515" stroke-width="1"/> <text x="90" y="214" class="label">Red 625 nm</text> <text x="90" y="230" class="small">(Power / HDD LED)</text>
<text x="42" y="255" class="small">Excitation channels reused</text>

<!-- Detection (Camera / Sensor) --> <rect x="30" y="280" width="190" height="120" class="blk" rx="6"/> <text x="42" y="300" class="title" font-size="13px">Existing Sensor</text> <rect x="55" y="315" width="60" height="55" fill="#222" stroke="#000" stroke-width="1"/> <rect x="60" y="320" width="50" height="45" fill="#555"/> <text x="125" y="335" class="label">Camera /</text> <text x="125" y="352" class="label">Photodiode*</text> <text x="42" y="390" class="small">*Webcam / phone cam</text> <!-- Screen Pixel Interface --> <rect x="250" y="70" width="190" height="160" class="blk" rx="6"/> <text x="262" y="90" class="title" font-size="13px">Screen Pixel Grid</text> <!-- pixel grid --> <g transform="translate(270,105)"> <rect width="90" height="90" fill="none" stroke="#333" stroke-width="0.8"/> <g> <!-- 3x3 RGB pattern --> <rect x="0" y="0" width="30" height="30" fill="#ff3a3a"/> <rect x="30" y="0" width="30" height="30" fill="#38c93f"/> <rect x="60" y="0" width="30" height="30" fill="#3a6bff"/> <rect x="0" y="30" width="30" height="30" fill="#3a6bff"/> <rect x="30" y="30" width="30" height="30" fill="#ff3a3a"/> <rect x="60" y="30" width="30" height="30" fill="#38c93f"/> <rect x="0" y="60" width="30" height="30" fill="#38c93f"/> <rect x="30" y="60" width="30" height="30" fill="#3a6bff"/> <rect x="60" y="60" width="30" height="30" fill="#ff3a3a"/> </g> </g> <text x="262" y="212" class="small">RGB → (ΔE, Δθ, Δd)</text> <!-- CPU Timing / Noise / Mapping --> <rect x="250" y="250" width="190" height="210" class="blk" rx="6"/> <text x="262" y="270" class="title" font-size="13px">CPU Subsystems</text> <text x="262" y="295" class="label">Cycle Mapping</text> <text x="262" y="315" class="label">Timing Buffers</text> <text x="262" y="335" class="label">Phase Drift Monitor</text> <text x="262" y="355" class="label">Noise Engine N(t)</text> <text x="262" y="375" class="label">Spectral Fit Logic</text> <text x="262" y="395" class="label">Molecular DB Access</text> <text x="262" y="417" class="small">Existing CPU cycles reused</text> <!-- Central Integration Core --> <rect x="470" y="120" width="240" height="250" class="core" rx="10"/> <text x="485" y="145" class="title">Virtual Spectroscopy </text> <text x="485" y="162" class="title">Molecular Integration Core</text>
<text x="485" y="188" class="label">1. LED Excitation Model</text>
<text x="485" y="206" class="label">2. Emission Synthesis I(λ)</text>
<text x="485" y="224" class="label">3. Lifetime / Φ Extraction</text>
<text x="485" y="242" class="label">4. Noise-Assisted Filtering</text>
<text x="485" y="260" class="label">5. Timing Synchronization</text>
<text x="485" y="278" class="label">6. Pixel → Param Mapping</text>
<text x="485" y="296" class="label">7. Molecular Identification</text>
<text x="485" y="314" class="label">8. Performance Counters</text>
<text x="753" y="195" class="label">• Identity Match (confidence)</text> <text x="753" y="212" class="label">• Φ, τ, σ_abs</text> <text x="753" y="229" class="label">• ΔE / Δθ / Δd applied</text> <text x="753" y="246" class="label">• Quality / SNR metrics</text> <rect x="740" y="285" width="210" height="145" class="out" rx="8"/> <text x="753" y="306" class="title" font-size="13px">Performance Gains</text> <text x="753" y="328" class="metric">Speed: 3.2–4.7×</text> <text x="753" y="346" class="metric">Memory: 157× less</text> <text x="753" y="364" class="metric">Power: 1.6× efficiency</text> <text x="753" y="382" class="metric">Cost Added: $0.00</text> <!-- Optional GPU --> <rect x="470" y="390" width="150" height="90" class="opt" rx="8"/> <text x="482" y="412" class="title" font-size="13px">Optional GPU</text> <text x="482" y="432" class="label">Parallel kernels</text> <text x="482" y="448" class="label">A_GPU ≈ 47× (MD)</text> <!-- Optional Network --> <rect x="640" y="390" width="190" height="90" class="opt" rx="8"/> <text x="652" y="412" class="title" font-size="13px">Optional Network Layer</text> <text x="652" y="432" class="label">Multi-display scaling</text> <text x="652" y="448" class="label">Distributed LED arrays</text> <!-- Arrows (LEDs → Core) --> <path d="M220 155 L470 200" class="arrow"/> <path d="M220 205 L470 220" class="arrow"/> <!-- Sensor → Core --> <path d="M220 340 L470 260" class="arrow"/> <!-- Pixel grid → Core --> <path d="M440 150 L470 170" class="arrow"/> <!-- CPU block → Core --> <path d="M440 355 L470 295" class="arrow"/> <path d="M440 300 L470 250" class="arrow"/> <!-- Core → Outputs --> <path d="M710 210 L740 210" class="arrow"/> <path d="M710 295 L740 325" class="arrow"/> <!-- GPU optional --> <path d="M545 390 L575 370 L600 370" class="dashedArrow"/> <path d="M620 370 L640 390" class="dashedArrow"/> <!-- Core → GPU --> <path d="M590 370 L545 390" class="dashedArrow"/> <!-- Legend --> <rect x="30" y="430" width="410" height="140" class="legendBox" rx="6"/> <text x="45" y="452" class="title" font-size="13px">Legend / Symbol Key</text> <circle cx="55" cy="475" r="10" fill="#1f6bff" stroke="#0d2f66" stroke-width="1"/> <text x="73" y="479" class="label">LED wavelength channel (existing hardware)</text> <rect x="45" y="490" width="20" height="14" fill="#222" stroke="#000" stroke-width="1"/> <text x="73" y="501" class="label">Existing imaging sensor (webcam / camera)</text> <rect x="45" y="510" width="20" height="14" fill="#f5faff" stroke="#1d6fa5" stroke-width="1"/> <text x="73" y="521" class="label">Core virtual integration layer (software only)</text> <rect x="45" y="530" width="20" height="14" fill="#fff" stroke="#0b4b16" stroke-width="1"/> <text x="73" y="541" class="label">Computed outputs (no new hardware)</text> <rect x="240" y="470" width="20" height="14" class="opt"/> <text x="268" y="481" class="label">Optional accelerators (GPU / network)</text> <path d="M250 495 L270 495" class="arrow"/> <text x="273" y="499" class="label">Mandatory data flow</text> <path d="M250 515 L270 515" class="dashedArrow"/> <text x="273" y="519" class="label">Optional / scalable flow</text> 
<!-- Output Blocks --> <rect x="740" y="150" width="210" height="115" class="out" rx="8"/> <text x="753" y="172" class="title" font-size="13px">Molecular Property Output</text>   </svg>