<svg width="1000" height="700" xmlns="http://www.w3.org/2000/svg">
  <defs>
    <style>
      .title-text { font-family: Arial, sans-serif; font-weight: bold; font-size: 14px; text-anchor: middle; }
      .math-text { font-family: "Times New Roman", serif; font-weight: bold; font-size: 12px; text-anchor: middle; }
      .small-text { font-family: Arial, sans-serif; font-size: 9px; text-anchor: middle; }
      .tiny-text { font-family: Arial, sans-serif; font-size: 8px; text-anchor: middle; }
    </style>
    <marker id="arrow" markerWidth="8" markerHeight="6" refX="7" refY="3" orient="auto">
      <polygon points="0 0, 8 3, 0 6" fill="#FF00FF"/>
    </marker>
  </defs>
  
  <!-- Central biological Hilbert space -->
  <circle cx="350" cy="350" r="100" fill="#FFD4D4" stroke="#FF0000" stroke-width="3"/>
  <text x="350" y="345" class="math-text" fill="#FF0000">ℋ_bio</text>
  <text x="350" y="380" class="tiny-text" fill="#FF0000">Infinite-Dimensional</text>
  
  <!-- Component Hilbert spaces -->
  <circle cx="150" cy="200" r="60" fill="#D4E5FF" stroke="#0000FF" stroke-width="2"/>
  <text x="150" y="195" class="math-text" fill="#0000FF">ℋ_ATP</text>
  <text x="150" y="230" class="tiny-text" fill="#0000FF">Energy Space</text>
  
  <circle cx="550" cy="200" r="60" fill="#D4FFD4" stroke="#00AA00" stroke-width="2"/>
  <text x="550" y="195" class="math-text" fill="#00AA00">ℋ_osc</text>
  <text x="550" y="230" class="tiny-text" fill="#00AA00">Oscillatory Space</text>
  
  <circle cx="150" cy="500" r="60" fill="#FFE6CC" stroke="#FF8800" stroke-width="2"/>
  <text x="150" y="495" class="math-text" fill="#FF8800">ℋ_membrane</text>
  <text x="150" y="530" class="tiny-text" fill="#FF8800">Membrane Space</text>
  
  <circle cx="550" cy="500" r="60" fill="#E6D3F7" stroke="#8800FF" stroke-width="2"/>
  <text x="550" y="495" class="math-text" fill="#8800FF">⊕ℋ_n</text>
  <text x="550" y="530" class="tiny-text" fill="#8800FF">Hierarchy Spaces</text>
  
  <!-- Tensor product connections -->
  <line x1="210" y1="200" x2="275" y2="275" stroke="#FF00FF" stroke-width="3" marker-end="url(#arrow)"/>
  <line x1="490" y1="200" x2="425" y2="275" stroke="#FF00FF" stroke-width="3" marker-end="url(#arrow)"/>
  <line x1="210" y1="500" x2="275" y2="425" stroke="#FF00FF" stroke-width="3" marker-end="url(#arrow)"/>
  <line x1="490" y1="500" x2="425" y2="425" stroke="#FF00FF" stroke-width="3" marker-end="url(#arrow)"/>
  
  <!-- Tensor product formula -->
  <text x="350" y="100" class="math-text" fill="#FF00FF">ℋ_bio = ℋ_ATP ⊗ ℋ_osc ⊗ ℋ_membrane ⊗ ⊕ℋ_n</text>
  
  <!-- Infinite hierarchy visualization -->
  <circle cx="650" cy="350" r="8" fill="none" stroke="#00AAAA" stroke-width="2"/>
  <text x="650" y="355" class="tiny-text">n=0</text>
  <circle cx="665" cy="360" r="8" fill="none" stroke="#00AAAA" stroke-width="2"/>
  <text x="665" y="365" class="tiny-text">n=1</text>
  <circle cx="680" cy="370" r="8" fill="none" stroke="#00AAAA" stroke-width="2"/>
  <text x="680" y="375" class="tiny-text">n=2</text>
  <text x="720" y="380" class="math-text" fill="#00AAAA">...∞</text>
  
  <!-- Separability structure -->
  <rect x="50" y="600" width="250" height="80" fill="#F5F5DC" stroke="#8B4513" stroke-width="2" rx="5"/>
  <text x="175" y="625" class="title-text" fill="#8B4513">Separable Structure</text>
  <text x="175" y="650" class="tiny-text">Countable orthonormal basis: {|e_n⟩}</text>
  
  <!-- Completeness relation -->
  <rect x="400" y="600" width="250" height="80" fill="#F0F0F0" stroke="#808080" stroke-width="2" rx="5"/>
  <text x="525" y="625" class="title-text" fill="#808080">Completeness</text>
  <text x="525" y="650" class="tiny-text">∑|e_n⟩⟨e_n| = 𝕀</text>
  
  <!-- Mathematical foundation -->
  <text x="500" y="30" class="small-text">|ψ_bio⟩ = ∑c_nmkl |ATP_n⟩ ⊗ |osc_m⟩ ⊗ |mem_k⟩ ⊗ |hier_l⟩</text>
</svg>