<svg width="1000" height="800" xmlns="http://www.w3.org/2000/svg">
  <defs>
    <style>
      .title-text { font-family: Arial, sans-serif; font-weight: bold; font-size: 14px; text-anchor: middle; }
      .section-title { font-family: Arial, sans-serif; font-weight: bold; font-size: 12px; text-anchor: middle; }
      .body-text { font-family: Arial, sans-serif; font-size: 11px; text-anchor: middle; }
      .small-text { font-family: Arial, sans-serif; font-size: 10px; }
      .equation-text { font-family: "Times New Roman", serif; font-size: 11px; }
    </style>
    <marker id="arrowhead" markerWidth="10" markerHeight="7" refX="9" refY="3.5" orient="auto">
      <polygon points="0 0, 10 3.5, 0 7" fill="#000"/>
    </marker>
  </defs>
  
  <!-- Background -->
  <rect width="1000" height="800" fill="#f8f9fa"/>
  
  <!-- Title -->
  <text x="500" y="30" class="title-text">Borgia Framework: Information-Theoretic Bounds and Universal Solvability</text>
  
  <!-- 3D Surface representation (properly implemented) -->
  <g transform="translate(50,60)">
    <!-- Create 3D-like surface using multiple paths -->
    <!-- Back surface lines -->
    <g opacity="0.4">
      <path d="M 50,200 L 150,180 L 250,160 L 350,140 L 450,120 L 550,100" 
            stroke="#4169E1" stroke-width="2" fill="none"/>
      <path d="M 50,220 L 150,200 L 250,180 L 350,160 L 450,140 L 550,120" 
            stroke="#4169E1" stroke-width="2" fill="none"/>
      <path d="M 50,240 L 150,220 L 250,200 L 350,180 L 450,160 L 550,140" 
            stroke="#4169E1" stroke-width="2" fill="none"/>
      <path d="M 50,260 L 150,240 L 250,220 L 350,200 L 450,180 L 550,160" 
            stroke="#4169E1" stroke-width="2" fill="none"/>
    </g>
    
    <!-- Surface mesh -->
    <g opacity="0.6">
      <!-- Vertical grid lines -->
      <line x1="50" y1="200" x2="50" y2="260" stroke="#4169E1" stroke-width="1"/>
      <line x1="150" y1="180" x2="150" y2="240" stroke="#4169E1" stroke-width="1"/>
      <line x1="250" y1="160" x2="250" y2="220" stroke="#4169E1" stroke-width="1"/>
      <line x1="350" y1="140" x2="350" y2="200" stroke="#4169E1" stroke-width="1"/>
      <line x1="450" y1="120" x2="450" y2="180" stroke="#4169E1" stroke-width="1"/>
      <line x1="550" y1="100" x2="550" y2="160" stroke="#4169E1" stroke-width="1"/>
      
      <!-- Surface fill polygons -->
      <polygon points="50,200 150,180 150,200 50,220" fill="#4169E1" opacity="0.3"/>
      <polygon points="150,180 250,160 250,180 150,200" fill="#4169E1" opacity="0.3"/>
      <polygon points="250,160 350,140 350,160 250,180" fill="#4169E1" opacity="0.3"/>
      <polygon points="350,140 450,120 450,140 350,160" fill="#4169E1" opacity="0.3"/>
      <polygon points="450,120 550,100 550,120 450,140" fill="#4169E1" opacity="0.3"/>
      
      <polygon points="50,220 150,200 150,220 50,240" fill="#4169E1" opacity="0.3"/>
      <polygon points="150,200 250,180 250,200 150,220" fill="#4169E1" opacity="0.3"/>
      <polygon points="250,180 350,160 350,180 250,200" fill="#4169E1" opacity="0.3"/>
      <polygon points="350,160 450,140 450,160 350,180" fill="#4169E1" opacity="0.3"/>
      <polygon points="450,140 550,120 550,140 450,160" fill="#4169E1" opacity="0.3"/>
    </g>
    
    <!-- 3D Axes -->
    <line x1="0" y1="300" x2="600" y2="300" stroke="#000" stroke-width="2" marker-end="url(#arrowhead)"/>
    <text x="620" y="305" class="body-text">Vehicles (n)</text>
    
    <line x1="0" y1="300" x2="0" y2="50" stroke="#000" stroke-width="2" marker-end="url(#arrowhead)"/>
    <text x="-30" y="40" class="body-text">State Space (log₁₀)</text>
    
    <!-- Pseudo-3D depth axis -->
    <line x1="0" y1="300" x2="50" y2="250" stroke="#000" stroke-width="2" marker-end="url(#arrowhead)"/>
    <text x="70" y="240" class="body-text">Pedestrians (m)</text>
    
    <!-- Critical point annotation -->
    <circle cx="200" cy="170" r="6" fill="#FF0000"/>
    <text x="350" y="120" class="body-text" fill="#FF0000">|S_total| > 10¹⁶⁵</text>
    <line x1="200" y1="170" x2="330" y2="130" stroke="#FF0000" stroke-width="2" stroke-dasharray="5,5"/>
    
    <!-- Axis labels and tick marks -->
    <g class="small-text">
      <text x="100" y="320">5</text>
      <text x="200" y="320">10</text>
      <text x="300" y="320">15</text>
      <text x="400" y="320">20</text>
      <text x="500" y="320">25</text>
      
      <text x="-20" y="280">50</text>
      <text x="-20" y="230">100</text>
      <text x="-20" y="180">150</text>
      <text x="-20" y="130">200</text>
    </g>
  </g>
  
  <!-- Information-theoretic bound -->
  <line x1="50" y1="180" x2="700" y2="180" stroke="#FF0000" stroke-width="3" stroke-dasharray="10,5"/>
  <text x="400" y="170" class="section-title" fill="#FF0000">Information-Theoretic Bound (Impossible Region)</text>
  
  <!-- Molecular Computing Solvability Graph -->
  <g transform="translate(50,420)">
    <text x="150" y="-10" class="section-title">Borgia Universal Solvability</text>
    
    <!-- Axes -->
    <line x1="0" y1="150" x2="300" y2="150" stroke="#000" stroke-width="2" marker-end="url(#arrowhead)"/>
    <text x="320" y="155" class="body-text">Problem Complexity</text>
    
    <line x1="0" y1="150" x2="0" y2="50" stroke="#000" stroke-width="2" marker-end="url(#arrowhead)"/>
    <text x="-40" y="40" class="body-text">Solvability S(P,t)</text>
    
    <!-- Traditional approach failure curve (exponential decay) -->
    <path d="M 20,70 Q 60,80 100,100 Q 140,120 180,135 Q 220,145 260,148 Q 280,149 300,149.5" 
          stroke="#FF0000" stroke-width="3" fill="none"/>
    <text x="150" y="90" class="body-text" fill="#FF0000">Traditional Computing: S(P,t) → 0</text>
    
    <!-- Borgia constant solution -->
    <line x1="20" y1="80" x2="300" y2="80" stroke="#2e7d32" stroke-width="3"/>
    <text x="150" y="70" class="body-text" fill="#2e7d32">Borgia Framework: S(P,t) = 1 (Universal)</text>
    
    <!-- Grid lines for reference -->
    <g stroke="#E0E0E0" stroke-width="0.5">
      <line x1="0" y1="100" x2="300" y2="100"/>
      <line x1="0" y1="120" x2="300" y2="120"/>
      <line x1="100" y1="50" x2="100" y2="150"/>
      <line x1="200" y1="50" x2="200" y2="150"/>
    </g>
  </g>
  
  <!-- Critical equations box -->
  <rect x="450" y="420" width="400" height="180" fill="#e8f5e8" stroke="#2e7d32" stroke-width="2" rx="5"/>
  <text x="650" y="445" class="section-title" fill="#2e7d32">Borgia Universal Solvability:</text>
  <text x="470" y="470" class="equation-text" fill="#2e7d32">∀P ∈ Physical Reality ⇒ ∃S ∈ Oscillatory Substrate</text>
  <text x="470" y="495" class="equation-text" fill="#2e7d32">C_atmospheric = 10²⁵ × 10¹² × 10⁻⁶ = 10³¹ ops/sec/m³</text>
  <text x="470" y="515" class="equation-text" fill="#2e7d32">S_osc(t) = k ln(Ω(t)) + ∫ ∂ln(Ω)/∂τ dτ</text>
  <text x="470" y="545" class="equation-text" fill="#2e7d32">∴ S(P,t) = 1 (Universal molecular computing)</text>
  <text x="470" y="575" class="small-text" fill="#2e7d32">Oscillatory systems enable universal problem solving</text>
  
  <!-- Molecular information capacity box -->
  <rect x="50" y="650" width="800" height="120" fill="#e3f2fd" stroke="#1976d2" stroke-width="2" rx="5"/>
  <text x="450" y="675" class="section-title" fill="#1976d2">Molecular Information Processing Capacity:</text>
  <text x="70" y="700" class="equation-text" fill="#1976d2">I_molecular = Σᵢ H(Oscillatorᵢ) + Σᵢⱼ I(BMDᵢ;BMDⱼ) + Σₜ H(Catalysis(t))</text>
  <text x="70" y="725" class="small-text" fill="#1976d2">Borgia configuration: 45 dual-functionality molecules, 669 network connections</text>
  <text x="70" y="745" class="equation-text" fill="#1976d2">|S_molecular| = 10²⁵ molecules/m³ × 10¹² Hz × 10⁶ ops/s = Universal</text>
  <text x="450" y="765" class="section-title" fill="#2e7d32">Measured amplification: 800.34±67.2× exceeds theoretical limits</text>
</svg>
