<svg width="1200" height="800" xmlns="http://www.w3.org/2000/svg">
  <defs>
    <style>
      .title-text { font-family: Arial, sans-serif; font-weight: bold; font-size: 14px; text-anchor: middle; }
      .section-title { font-family: Arial, sans-serif; font-weight: bold; font-size: 12px; text-anchor: middle; }
      .body-text { font-family: Arial, sans-serif; font-size: 10px; text-anchor: middle; }
      .small-text { font-family: Arial, sans-serif; font-size: 9px; text-anchor: middle; }
    </style>
    <marker id="arrow" markerWidth="10" markerHeight="7" refX="9" refY="3.5" orient="auto">
      <polygon points="0 0, 10 3.5, 0 7" fill="#000"/>
    </marker>
    <marker id="red-arrow" markerWidth="10" markerHeight="7" refX="9" refY="3.5" orient="auto">
      <polygon points="0 0, 10 3.5, 0 7" fill="#FF0000"/>
    </marker>
    <marker id="green-arrow" markerWidth="10" markerHeight="7" refX="9" refY="3.5" orient="auto">
      <polygon points="0 0, 10 3.5, 0 7" fill="#00AA00"/>
    </marker>
  </defs>
  
  <!-- Traditional impossible approach -->
  <rect x="50" y="300" width="200" height="200" fill="#FFD4D4" stroke="#000" stroke-width="2" rx="10"/>
  <text x="150" y="330" class="section-title">Traditional Approach</text>
  <text x="150" y="380" class="small-text">• Environmental modeling</text>
  <text x="150" y="400" class="small-text">• Complete information</text>
  <text x="150" y="420" class="small-text">• Behavioral prediction</text>
  <text x="150" y="440" class="small-text">• Centralized control</text>
  <text x="150" y="470" class="small-text" fill="#FF0000">Violates information-theoretic bounds</text>
  
  <!-- Four revolutionary technologies -->
  <!-- Oscillatory Dynamics -->
  <rect x="350" y="100" width="180" height="150" fill="#CCE5FF" stroke="#000" stroke-width="2" rx="10"/>
  <text x="440" y="125" class="section-title">1. Oscillatory Dynamics</text>
  <text x="440" y="150" class="small-text">• Hardware oscillation harvesting</text>
  <text x="440" y="165" class="small-text">• Environmental sensing without sensors</text>
  <text x="440" y="180" class="small-text">• Tangible entropy engineering</text>
  <text x="440" y="195" class="small-text">• Direct vehicle behavior control</text>
  <text x="440" y="220" class="section-title">Performance:</text>
  <text x="440" y="235" class="small-text">67.3% overhead reduction</text>
  
  <!-- Consciousness-Aware Positioning -->
  <rect x="570" y="100" width="180" height="150" fill="#D4F4DD" stroke="#000" stroke-width="2" rx="10"/>
  <text x="660" y="125" class="section-title">2. Consciousness-Aware Positioning</text>
  <text x="660" y="150" class="small-text">• 9,000,000+ electromagnetic signals</text>
  <text x="660" y="165" class="small-text">• 10⁻¹² meter accuracy</text>
  <text x="660" y="180" class="small-text">• Consciousness validation metrics</text>
  <text x="660" y="195" class="small-text">• IIT enhancement factors</text>
  <text x="660" y="220" class="section-title">Performance:</text>
  <text x="660" y="235" class="small-text">10¹²× improvement over GPS</text>
  
  <!-- Spatio-Temporal Navigation -->
  <rect x="350" y="500" width="180" height="150" fill="#FFE6CC" stroke="#000" stroke-width="2" rx="10"/>
  <text x="440" y="525" class="section-title">3. Spatio-Temporal Navigation</text>
  <text x="440" y="550" class="small-text">• Precision-by-difference calculation</text>
  <text x="440" y="565" class="small-text">• 3.6 × 10⁻¹⁹ meter accuracy</text>
  <text x="440" y="580" class="small-text">• Fragment-based coordination</text>
  <text x="440" y="595" class="small-text">• Eliminates behavioral prediction</text>
  <text x="440" y="620" class="section-title">Performance:</text>
  <text x="440" y="635" class="small-text">Sub-atomic navigation precision</text>
  
  <!-- Constrained Intelligence -->
  <rect x="570" y="500" width="180" height="150" fill="#E6D3F7" stroke="#000" stroke-width="2" rx="10"/>
  <text x="660" y="525" class="section-title">4. Constrained Intelligence</text>
  <text x="660" y="550" class="small-text">• Evidence-based resolution</text>
  <text x="660" y="565" class="small-text">• Biological Maxwell Demons</text>
  <text x="660" y="580" class="small-text">• ATP energy constraints</text>
  <text x="660" y="595" class="small-text">• Zero/infinite computation duality</text>
  <text x="660" y="620" class="section-title">Performance:</text>
  <text x="660" y="635" class="small-text">&lt;10ms emergency response</text>
  
  <!-- Central integration -->
  <ellipse cx="550" cy="375" rx="100" ry="75" fill="#CCFFCC" stroke="#000" stroke-width="2"/>
  <text x="550" y="350" class="section-title">Self-Aware</text>
  <text x="550" y="370" class="section-title">Autonomous</text>
  <text x="550" y="390" class="section-title">Personal Transport</text>
  <text x="550" y="415" class="section-title">Universal Completeness:</text>
  <text x="550" y="430" class="small-text">A_complete = O × C × S × I</text>
  
  <!-- Integration arrows -->
  <line x1="440" y1="250" x2="500" y2="320" stroke="#0000FF" stroke-width="3" marker-end="url(#arrow)"/>
  <line x1="660" y1="250" x2="600" y2="320" stroke="#0000FF" stroke-width="3" marker-end="url(#arrow)"/>
  <line x1="440" y1="500" x2="500" y2="430" stroke="#0000FF" stroke-width="3" marker-end="url(#arrow)"/>
  <line x1="660" y1="500" x2="600" y2="430" stroke="#0000FF" stroke-width="3" marker-end="url(#arrow)"/>
  
  <!-- Cross-technology synergies -->
  <path d="M 440,175 Q 500,120 660,175" stroke="#800080" stroke-width="2" stroke-dasharray="5,5" fill="none" marker-end="url(#arrow)"/>
  <path d="M 660,575 Q 720,520 660,175" stroke="#800080" stroke-width="2" stroke-dasharray="5,5" fill="none" marker-end="url(#arrow)"/>
  <path d="M 660,575 Q 600,650 440,575" stroke="#800080" stroke-width="2" stroke-dasharray="5,5" fill="none" marker-end="url(#arrow)"/>
  <path d="M 440,575 Q 380,520 440,175" stroke="#800080" stroke-width="2" stroke-dasharray="5,5" fill="none" marker-end="url(#arrow)"/>
  

  
  <!-- Revolutionary results -->
  <rect x="850" y="300" width="200" height="200" fill="#FFE6CC" stroke="#000" stroke-width="2" rx="10"/>
  <text x="950" y="325" class="section-title">Results:</text>
  <text x="950" y="350" class="small-text">• Urban: 99.7% success</text>
  <text x="950" y="370" class="small-text">• Highway: 98.9% success</text>
  <text x="950" y="390" class="small-text">• Emergency: 99.1% success</text>
  <text x="950" y="410" class="small-text">• Weather: 93.8% success</text>
  <text x="950" y="430" class="small-text">• Energy: 84.6% reduction</text>
  <text x="950" y="450" class="small-text">• Overhead: 67.3% reduction</text>
  <text x="950" y="480" class="section-title">Works within theoretical bounds</text>
  
  <line x1="650" y1="375" x2="850" y2="400" stroke="#00AA00" stroke-width="4" marker-end="url(#green-arrow)"/>

</svg>