<svg xmlns="http://www.w3.org/2000/svg" width="820" height="540" viewBox="0 0 820 540"> <rect width="820" height="540" fill="white"/> <defs> <marker id="arrow" markerWidth="10" markerHeight="10" refX="8" refY="3" orient="auto"> <path d="M0,0 L8,3 L0,6 Z" fill="#222"/> </marker> </defs> <!-- Central structure M --> <rect x="360" y="190" width="100" height="70" rx="14" ry="14" fill="#cfe4ff" stroke="#2f6fb8" stroke-width="2"/> <text x="410" y="232" font-family="Arial" font-size="30" text-anchor="middle" fill="#1d3f66">M</text> <!-- Properties (ellipses) --> <ellipse cx="250" cy="120" rx="70" ry="40" fill="#d5f7dc" stroke="#2c8a43" stroke-width="2"/> <text x="250" y="126" font-family="Arial" font-size="24" text-anchor="middle" fill="#135c25">P1</text> <ellipse cx="410" cy="80" rx="70" ry="40" fill="#d5f7dc" stroke="#2c8a43" stroke-width="2"/> <text x="410" y="86" font-family="Arial" font-size="24" text-anchor="middle" fill="#135c25">P2</text> <ellipse cx="570" cy="120" rx="70" ry="40" fill="#d5f7dc" stroke="#2c8a43" stroke-width="2"/> <text x="570" y="126" font-family="Arial" font-size="24" text-anchor="middle" fill="#135c25">P3</text> <!-- Downward necessity chain (diamonds) -->
<polygon points="410,290 450,330 410,370 370,330"
        fill="#fff4c2" stroke="#c9a315" stroke-width="2"/>
<text x="410" y="336" font-family="Arial" font-size="26" text-anchor="middle" fill="#8a6b00">E</text>

<polygon points="410,390 450,430 410,470 370,430"
        fill="#fff4c2" stroke="#c9a315" stroke-width="2"/>
<text x="410" y="436" font-family="Arial" font-size="26" text-anchor="middle" fill="#8a6b00">D</text>

<polygon points="410,490 450,530 410,570 370,530"
        fill="#fff4c2" stroke="#c9a315" stroke-width="2" transform="translate(0,-40)"/>
<text x="410" y="532" font-family="Arial" font-size="26" text-anchor="middle" fill="#8a6b00">O</text>

<!-- Side boxes --> <rect x="660" y="150" width="110" height="110" rx="8" ry="8" fill="#fbdede" stroke="#cc6666"/> <text x="715" y="215" font-family="Arial" font-size="30" text-anchor="middle" fill="#993333">N</text> <rect x="660" y="300" width="110" height="110" rx="8" ry="8" fill="#eed9ff" stroke="#8a55c8"/> <text x="715" y="365" font-family="Arial" font-size="30" text-anchor="middle" fill="#5d2a99">Q</text> <rect x="50" y="320" width="150" height="160" rx="10" ry="10" fill="#d9f6ff" stroke="#2a91ad"/> <text x="125" y="405" font-family="Arial" font-size="36" text-anchor="middle" fill="#1c5d6d">S</text> <!-- Arrows from properties to M --> <g stroke="#222" stroke-width="2.4" fill="none" marker-end="url(#arrow)"> <line x1="250" y1="160" x2="390" y2="205"/> <line x1="410" y1="120" x2="410" y2="190"/> <line x1="570" y1="160" x2="430" y2="205"/> <!-- Chain downward --> <line x1="410" y1="260" x2="410" y2="290"/> <line x1="410" y1="370" x2="410" y2="390"/> <line x1="410" y1="470" x2="410" y2="490"/> <!-- Optional lateral hint arrows (not required, kept minimal) --> </g> </svg>