<svg width="800" height="600" xmlns="http://www.w3.org/2000/svg">
  <!-- Background -->
  <rect width="800" height="600" fill="#f8f9fa"/>
  
  <!-- Title -->
  <text x="400" y="30" text-anchor="middle" font-weight="bold" font-size="18" fill="#2c3e50">Borgia Dual-Functionality Molecular Architecture</text>
  
  <!-- Four panels -->
  <rect x="50" y="50" width="300" height="200" fill="#e3f2fd" stroke="#1976d2" stroke-width="2" rx="8"/>
  <rect x="450" y="50" width="300" height="200" fill="#f3e5f5" stroke="#7b1fa2" stroke-width="2" rx="8"/>
  <rect x="50" y="350" width="300" height="200" fill="#e8f5e8" stroke="#388e3c" stroke-width="2" rx="8"/>
  <rect x="450" y="350" width="300" height="200" fill="#fff3e0" stroke="#f57c00" stroke-width="2" rx="8"/>
  
  <!-- Panel 1: Oscillatory Properties -->
  <text x="200" y="75" text-anchor="middle" font-weight="bold" fill="#1976d2">Oscillatory Clock Function</text>
  <path d="M 80 120 Q 120 100 160 120 Q 200 140 240 120 Q 280 100 320 120" fill="none" stroke="#1976d2" stroke-width="3"/>
  <text x="330" y="125" font-size="12" fill="#1976d2">f₀</text>
  <path d="M 80 150 Q 100 140 120 150 Q 140 160 160 150 Q 180 140 200 150" fill="none" stroke="#1976d2" stroke-width="2"/>
  <text x="210" y="155" font-size="12" fill="#1976d2">precision</text>
  <text x="200" y="200" text-anchor="middle" font-size="12" fill="#1976d2">Base Frequency: 10¹² Hz</text>
  <text x="200" y="215" text-anchor="middle" font-size="11" fill="#1976d2">Stability: >0.95</text>
  <text x="200" y="230" text-anchor="middle" font-size="11" fill="#1976d2">Temporal Resolution: f⁻¹</text>
  
  <!-- Panel 2: Computational -->
  <text x="600" y="75" text-anchor="middle" font-weight="bold" fill="#7b1fa2">Computational Processor Function</text>
  <!-- Processing elements -->
  <rect x="520" y="110" width="30" height="20" fill="#7b1fa2" stroke="#7b1fa2" stroke-width="2" rx="2"/>
  <text x="535" y="125" font-size="10" fill="white" text-anchor="middle">CPU</text>
  <rect x="570" y="110" width="30" height="20" fill="#7b1fa2" stroke="#7b1fa2" stroke-width="2" rx="2"/>
  <text x="585" y="125" font-size="10" fill="white" text-anchor="middle">MEM</text>
  <rect x="620" y="110" width="30" height="20" fill="#7b1fa2" stroke="#7b1fa2" stroke-width="2" rx="2"/>
  <text x="635" y="125" font-size="10" fill="white" text-anchor="middle">I/O</text>
  
  <!-- Processing specs -->
  <text x="600" y="160" text-anchor="middle" font-size="12" fill="#7b1fa2">Processing Rate: >10⁵ ops/s</text>
  <text x="600" y="175" text-anchor="middle" font-size="11" fill="#7b1fa2">Memory: >10⁴ bits</text>
  <text x="600" y="190" text-anchor="middle" font-size="11" fill="#7b1fa2">Instruction Set: Variable</text>
  <text x="600" y="205" text-anchor="middle" font-size="11" fill="#7b1fa2">Parallel Processing: 73%</text>
  <text x="600" y="230" text-anchor="middle" font-size="12" fill="#7b1fa2">Capacity ∝ f·η</text>
  
  <!-- Panel 3: Recursive Enhancement -->
  <text x="200" y="375" text-anchor="middle" font-weight="bold" fill="#388e3c">Recursive Enhancement</text>
  <!-- Enhancement cycle -->
  <circle cx="150" cy="420" r="20" fill="#388e3c" stroke="#388e3c" stroke-width="2"/>
  <text x="150" y="425" font-size="10" fill="white" text-anchor="middle">P(n)</text>
  <circle cx="250" cy="420" r="20" fill="#388e3c" stroke="#388e3c" stroke-width="2"/>
  <text x="250" y="425" font-size="10" fill="white" text-anchor="middle">T(n)</text>
  <!-- Arrows showing enhancement -->
  <line x1="170" y1="420" x2="230" y2="420" stroke="#388e3c" stroke-width="3" marker-end="url(#arrowhead)"/>
  <line x1="250" y1="400" x2="150" y2="400" stroke="#388e3c" stroke-width="3" marker-end="url(#arrowhead)"/>
  <text x="200" y="460" text-anchor="middle" font-size="12" fill="#388e3c">P(n+1) = P(n)×A(n)×T(n)</text>
  <text x="200" y="475" text-anchor="middle" font-size="12" fill="#388e3c">T(n+1) = T(n)×A(n)×P(n)</text>
  <text x="200" y="500" text-anchor="middle" font-size="11" fill="#388e3c">Enhancement Factor: ε = 0.247±0.023</text>
  <text x="200" y="515" text-anchor="middle" font-size="11" fill="#388e3c">Convergence Time: 2.3±0.4 μs</text>
  
  <!-- Panel 4: Quality Control -->
  <text x="600" y="375" text-anchor="middle" font-weight="bold" fill="#f57c00">Quality Control Validation</text>
  <!-- Quality control checkmarks -->
  <circle cx="550" cy="420" r="12" fill="#f57c00" stroke="#f57c00" stroke-width="2"/>
  <text x="550" y="425" font-size="12" fill="white" text-anchor="middle">✓</text>
  <text x="575" y="425" font-size="11" fill="#f57c00">Clock</text>
  
  <circle cx="650" cy="420" r="12" fill="#f57c00" stroke="#f57c00" stroke-width="2"/>
  <text x="650" y="425" font-size="12" fill="white" text-anchor="middle">✓</text>
  <text x="675" y="425" font-size="11" fill="#f57c00">Processor</text>
  
  <circle cx="550" cy="460" r="12" fill="#f57c00" stroke="#f57c00" stroke-width="2"/>
  <text x="550" y="465" font-size="12" fill="white" text-anchor="middle">✓</text>
  <text x="575" y="465" font-size="11" fill="#f57c00">Chemical</text>
  
  <circle cx="650" cy="460" r="12" fill="#f57c00" stroke="#f57c00" stroke-width="2"/>
  <text x="650" y="465" font-size="12" fill="white" text-anchor="middle">✓</text>
  <text x="675" y="465" font-size="11" fill="#f57c00">Integration</text>
  
  <text x="600" y="500" text-anchor="middle" font-size="12" fill="#f57c00">100% Compliance Required</text>
  <text x="600" y="515" text-anchor="middle" font-size="11" fill="#f57c00">Zero-Tolerance Policy</text>
  <text x="600" y="530" text-anchor="middle" font-size="11" fill="#f57c00">Cascade Failure Prevention</text>
  
  <!-- Borgia framework specifications -->
  <text x="400" y="580" font-size="14" text-anchor="middle" fill="#2c3e50" font-weight="bold">Universal Dual-Functionality: Every molecule = Clock + Processor</text>
</svg>
