<?xml version="1.0" encoding="UTF-8"?> <svg xmlns="http://www.w3.org/2000/svg" width="1800" height="2450" viewBox="0 0 1800 2450" font-family="Arial, Helvetica, sans-serif"> <defs> <linearGradient id="gTitle" x1="0" y1="0" x2="1" y2="1"> <stop offset="0%" stop-color="#f5f9ff"/> <stop offset="100%" stop-color="#d8e6f7"/> </linearGradient> <linearGradient id="gScale" x1="0" y1="0" x2="1" y2="0"> <stop offset="0%" stop-color="#eef7ff"/> <stop offset="100%" stop-color="#cde4fa"/> </linearGradient> <linearGradient id="gQuantum" x1="0" y1="0" x2="1" y2="1"> <stop offset="0%" stop-color="#f2ecff"/> <stop offset="100%" stop-color="#d9c9ff"/> </linearGradient> <linearGradient id="gMolecular" x1="0" y1="0" x2="1" y2="1"> <stop offset="0%" stop-color="#eaffef"/> <stop offset="100%" stop-color="#c9f3d6"/> </linearGradient> <linearGradient id="gEnvironmental" x1="0" y1="0" x2="1" y2="1"> <stop offset="0%" stop-color="#fff4e4"/> <stop offset="100%" stop-color="#ffe0b4"/> </linearGradient> <linearGradient id="gPerf" x1="0" y1="0" x2="1" y2="0"> <stop offset="0%" stop-color="#f8fbff"/> <stop offset="100%" stop-color="#dfe9f2"/> </linearGradient> <linearGradient id="gTopo" x1="0" y1="0" x2="1" y2="1"> <stop offset="0%" stop-color="#fff1f1"/> <stop offset="100%" stop-color="#ffd4d4"/> </linearGradient> <linearGradient id="gDyn" x1="0" y1="0" x2="1" y2="1"> <stop offset="0%" stop-color="#eefcff"/> <stop offset="100%" stop-color="#c9eef2"/> </linearGradient> <linearGradient id="gRobust" x1="0" y1="0" x2="1" y2="1"> <stop offset="0%" stop-color="#f6f6ff"/> <stop offset="100%" stop-color="#dedff9"/> </linearGradient> <linearGradient id="gSec" x1="0" y1="0" x2="1" y2="1"> <stop offset="0%" stop-color="#fff6eb"/> <stop offset="100%" stop-color="#ffdcb4"/> </linearGradient> <linearGradient id="gScale2" x1="0" y1="0" x2="1" y2="1"> <stop offset="0%" stop-color="#eef7f4"/> <stop offset="100%" stop-color="#d4ebe1"/> </linearGradient> <linearGradient id="gFuture" x1="0" y1="0" x2="1" y2="0"> <stop offset="0%" stop-color="#f2f8ff"/> <stop offset="100%" stop-color="#e1efff"/> </linearGradient> <marker id="arrow" markerWidth="11" markerHeight="11" refX="8" refY="5.5" orient="auto"> <path d="M0,0 L11,5.5 L0,11 Z" fill="#333"/> </marker> <style> .title { font-size:40px; font-weight:700; fill:#1e2a35; } .section { font-size:24px; font-weight:600; fill:#203040; } .sub { font-size:18px; font-weight:600; fill:#223747; } .mini { font-size:12px; fill:#333; } .small { font-size:13px; fill:#222; } .mono { font-family:'Courier New', monospace; font-size:13px; } .box { stroke:#333; stroke-width:1.4; rx:16; } .panel { stroke:#444; stroke-width:1.1; rx:10; } .h { font-weight:600; } .eq { font-family:'Courier New', monospace; font-size:12.5px; } .cap { font-size:11px; fill:#555; } .tblh { font-size:12px; font-weight:700; fill:#111; } .good { fill:#0d6b2b; font-weight:600; } .warn { fill:#b36a00; font-weight:600; } .bad { fill:#b30000; font-weight:600; } .bullet { font-size:13px; } </style> </defs> <rect width="1800" height="2450" fill="#fafbfc"/> <!-- Title --> <rect x="40" y="30" width="1720" height="110" fill="url(#gTitle)" class="box"/> <text x="900" y="95" text-anchor="middle" class="title">Molecular Architecture Networks</text> <!-- Multi-Scale Overview --> <g> <rect x="40" y="160" width="550" height="300" fill="url(#gScale)" class="box"/> <text x="315" y="190" text-anchor="middle" class="section">Multi-Scale Architecture</text> <text x="60" y="220" class="sub">Scale Definition</text> <text x="60" y="245" class="eq">τ_quantum = 10^{-15} s (fundamental)</text> <text x="60" y="265" class="eq">τ_molecular = 10^{-9} s (vibrational)</text> <text x="60" y="285" class="eq">τ_environmental = 10^{2} s (equilibration)</text> <text x="60" y="310" class="eq">N_total = N_q ⊕ N_m ⊕ N_e</text> <text x="60" y="335" class="eq">G = (V,E,W), V={v_q,v_m,v_e}</text> <text x="60" y="360" class="cap">⊕ hierarchical composition; W encodes coordination strength.</text> <line x1="80" y1="385" x2="510" y2="385" stroke="#333" stroke-width="2" marker-end="url(#arrow)"/> <text x="80" y="405" class="mini">10^{-15}s</text> <text x="260" y="405" class="mini">10^{-9}s</text> <text x="470" y="405" class="mini">10^{2}s</text> <circle cx="80" cy="385" r="6" fill="#6a3dbb"/> <circle cx="260" cy="385" r="7" fill="#1c8b3c"/> <circle cx="470" cy="385" r="8" fill="#d88416"/> <text x="60" y="430" class="cap">Hierarchical BMD coordination enables precision + thermodynamic efficiency.</text> </g> <!-- Quantum Layer --> <g> <rect x="620" y="160" width="360" height="520" fill="url(#gQuantum)" class="box"/> <text x="800" y="190" text-anchor="middle" class="section">Quantum BMD Layer (10^{-15}s)</text> <text x="640" y="215" class="sub">State Management</text> <text x="640" y="235" class="eq">|ψ_BMD⟩ = Σ_i α_i |q_i⟩⊗|m_i⟩⊗|e_i⟩</text> <text x="640" y="260" class="sub">Coherence Preservation</text> <text x="640" y="280" class="eq">ρ_corrected(t)= Σ_k E_k ρ(t) E_k†</text> <text x="640" y="300" class="small">T_coherence = 247 ± 23 μs @ 298K</text> <text x="640" y="325" class="sub">Entanglement Network</text> <text x="640" y="345" class="eq">|Ψ_network⟩ = (1/√(N!)) Σ_P sgn(P) ⊗_{i=1}^N |ψ_{P(i)}⟩</text> <text x="640" y="370" class="sub">Decoherence Mitigation</text> <text x="640" y="390" class="eq">dρ/dt = -i/ħ [H,ρ] + Σ_k γ_k (L_k ρ L_k† - ½{L_k†L_k,ρ})</text> <rect x="640" y="415" width="320" height="110" class="panel" fill="#ffffffb0"/> <text x="655" y="435" class="small h">Quantum Control Highlights</text> <text x="655" y="455" class="mini">• Kraus-based error correction</text> <text x="655" y="470" class="mini">• Entanglement orchestration</text> <text x="655" y="485" class="mini">• Lindblad adaptive damping</text> <text x="655" y="500" class="mini">• Thermal noise compensation</text> <rect x="640" y="535" width="320" height="120" class="panel" fill="#ffffffb0"/> <text x="655" y="555" class="small h">Performance</text> <text x="655" y="575" class="mini">Efficiency: 97.3 ± 1.2%</text> <text x="655" y="590" class="mini">Amplification: 1534 ± 187×</text> <text x="655" y="605" class="mini">Response: 0.247 ± 0.023 fs</text> </g> <!-- Molecular Layer --> <g> <rect x="1010" y="160" width="360" height="520" fill="url(#gMolecular)" class="box"/> <text x="1190" y="190" text-anchor="middle" class="section">Molecular BMD Layer (10^{-9}s)</text> <text x="1030" y="215" class="sub">Pattern Recognition</text> <text x="1030" y="235" class="eq">P(M) = σ(W_pattern · M + b_pattern)</text> <text x="1030" y="260" class="sub">Reaction Networks</text> <text x="1030" y="280" class="eq">d[C_i]/dt = Σ_j ν_ij Π_k [C_k]^{α_jk} e^{ -E_act,j / (k_BT)}</text> <text x="1030" y="305" class="sub">Conformational Optimization</text> <text x="1030" y="325" class="eq">min_R [ E_total(R) + λ Σ_i (R_i - R_target,i)^2 ]</text> <text x="1030" y="350" class="sub">Intermolecular Forces</text> <text x="1030" y="370" class="eq">U = Σ_{i&lt;j} [4ε_ij ((σ_ij/r_ij)^{12} - (σ_ij/r_ij)^6) + q_i q_j/(4π ε_0 r_ij)]</text> <rect x="1030" y="395" width="320" height="115" class="panel" fill="#ffffffb0"/> <text x="1045" y="415" class="small h">Mechanistic Focus</text> <text x="1045" y="435" class="mini">• Feature-conditioned catalysis</text> <text x="1045" y="450" class="mini">• Activation energy steering</text> <text x="1045" y="465" class="mini">• Force-field adaptive loops</text> <text x="1045" y="480" class="mini">• Conformational sampling control</text> <rect x="1030" y="520" width="320" height="135" class="panel" fill="#ffffffb0"/> <text x="1045" y="540" class="small h">Performance</text> <text x="1045" y="560" class="mini">Efficiency: 94.7 ± 2.1%</text> <text x="1045" y="575" class="mini">Amplification: 1247 ± 156×</text> <text x="1045" y="590" class="mini">Response: 2.34 ± 0.34 ns</text> <text x="1045" y="605" class="mini">Pattern recognition η ≥ 0.90</text> </g> <!-- Environmental Layer --> <g> <rect x="1400" y="160" width="360" height="520" fill="url(#gEnvironmental)" class="box"/> <text x="1580" y="190" text-anchor="middle" class="section">Environmental BMD Layer (10^{2}s)</text> <text x="1420" y="215" class="sub">Integration PDE</text> <text x="1420" y="235" class="eq">∂φ/∂t = D ∇²φ + S_molecular - k φ</text> <text x="1420" y="260" class="sub">Stability (State-Space)</text> <text x="1420" y="280" class="eq">x(t)=e^{At}x(0)+∫₀^t e^{A(t-τ)} B u(τ)dτ</text> <text x="1420" y="305" class="sub">External Interface</text> <text x="1420" y="325" class="eq">y_ext = C x_env + D u_ext</text> <text x="1420" y="350" class="sub">Resource Optimization</text> <text x="1420" y="370" class="eq">max_r Σ_i w_i f_i(r) s.t. Σ_i r_i ≤ R_total</text> <rect x="1420" y="395" width="320" height="115" class="panel" fill="#ffffffb0"/> <text x="1435" y="415" class="small h">Macroscopic Control</text> <text x="1435" y="435" class="mini">• Diffusion–reaction coupling</text> <text x="1435" y="450" class="mini">• Long horizon stabilization</text> <text x="1435" y="465" class="mini">• Resource-aware scheduling</text> <text x="1435" y="480" class="mini">• Interface normalization</text> <rect x="1420" y="520" width="320" height="135" class="panel" fill="#ffffffb0"/> <text x="1435" y="540" class="small h">Performance</text> <text x="1435" y="560" class="mini">Efficiency: 89.2 ± 3.4%</text> <text x="1435" y="575" class="mini">Amplification: 891 ± 123×</text> <text x="1435" y="590" class="mini">Response: 47 ± 8 s</text> <text x="1435" y="605" class="mini">Integrated: η = 93.7 ± 2.2%</text> </g> <!-- Inter-Scale Coordination --> <g> <rect x="40" y="480" width="550" height="330" fill="url(#gPerf)" class="box"/> <text x="315" y="510" text-anchor="middle" class="section">Inter-Scale Coordination</text> <text x="60" y="535" class="sub">Coupling Hamiltonian</text> <text x="60" y="555" class="eq">H_coupling = Σ_{i,j} g_ij |q_i⟩⟨q_j| ⊗ σ_molecular</text> <text x="60" y="580" class="sub">Molecular–Environmental</text> <text x="60" y="600" class="eq">dM/dt = f_molecular(M) + g_coupling(M,E)</text> <text x="60" y="625" class="sub">Tri-Scale Synchronization</text> <text x="60" y="645" class="eq">φ_q = ω_q t + δ_q; φ_m = ω_m t + δ_m; φ_e = ω_e t + δ_e</text> <text x="60" y="665" class="eq">n_q φ_q + n_m φ_m + n_e φ_e = 0</text> <rect x="60" y="690" width="500" height="100" class="panel" fill="#ffffffb0"/> <text x="75" y="710" class="small h">Coordination Metrics</text> <text x="75" y="730" class="mini">Quantum–Molecular: 96.1 ± 2.3% | 2.3 ± 0.4 Gbps | 0.89 ± 0.12 ps</text> <text x="75" y="745" class="mini">Molecular–Environmental: 92.7 ± 3.1% | 0.47 ± 0.08 Gbps | 23 ± 4 ms</text> <text x="75" y="760" class="mini">Quantum–Environmental: 87.4 ± 4.2% | 0.12 ± 0.03 Gbps | 156 ± 23 ms</text> </g> <!-- Topology Optimization --> <g> <rect x="40" y="840" width="550" height="370" fill="url(#gTopo)" class="box"/> <text x="315" y="870" text-anchor="middle" class="section">Topology Optimization</text> <text x="60" y="895" class="sub">Graph Measures</text> <text x="60" y="915" class="eq">C_clustering = (1/N) Σ_i 2T_i / [k_i(k_i-1)]</text> <text x="60" y="935" class="eq">L_path = (1/[N(N-1)]) Σ_{i≠j} d_ij</text> <text x="60" y="955" class="eq">Q_modularity = (1/2m) Σ_{ij} [A_ij - (k_i k_j /2m)] δ(c_i,c_j)</text> <text x="60" y="985" class="sub">Small-World Indicators</text> <text x="60" y="1005" class="eq">S = (C/C_random)/(L/L_random) = 47 ± 6</text> <text x="60" y="1025" class="eq">σ = (C/C_lattice)/(L/L_random) = 2.3 ± 0.4</text> <text x="60" y="1055" class="sub">Scale-Free Property</text> <text x="60" y="1075" class="eq">P(k) ~ k^{-γ}, γ = 2.7 ± 0.3</text> <rect x="60" y="1100" width="500" height="90" class="panel" fill="#ffffffb0"/> <text x="75" y="1120" class="small h">Optimization Targets</text> <text x="75" y="1140" class="mini">• Maximize modularity Q</text> <text x="240" y="1140" class="mini">• Control path length L</text> <text x="400" y="1140" class="mini">• Preserve scale-free tail</text> <text x="75" y="1160" class="mini">• Maintain S ≫ 1 small-worldness</text> </g> <!-- Dynamic Reconfiguration --> <g> <rect x="620" y="700" width="540" height="510" fill="url(#gDyn)" class="box"/> <text x="890" y="730" text-anchor="middle" class="section">Dynamic Network Reconfiguration</text> <text x="640" y="755" class="sub">Adaptive Algorithm</text> <text x="640" y="775" class="eq">ΔP = P_target − P_current</text> <rect x="640" y="800" width="500" height="180" class="panel" fill="#ffffffcc"/> <text x="655" y="820" class="small h">Reconfiguration Steps</text> <text x="655" y="840" class="mini">1. Measure P_current(G_current)</text> <text x="655" y="855" class="mini">2. If |ΔP| &gt; threshold:</text> <text x="670" y="870" class="mini">• Generate candidates {G_i}</text> <text x="670" y="885" class="mini">• Evaluate fitness(P_i)</text> <text x="670" y="900" class="mini">• Select G_optimized</text> <text x="670" y="915" class="mini">• Reconfigure(G_current→G_optimized)</text> <text x="655" y="930" class="mini">3. Verify improvement</text> <text x="640" y="995" class="sub">Edge Weight Optimization</text> <text x="640" y="1015" class="eq">W_opt = arg min_W [ ||P_target − P(W)||² + λ ||W||₁ ]</text> <text x="640" y="1040" class="sub">Node Management</text> <text x="640" y="1060" class="eq">Add if ΔPerformance &gt; threshold</text> <text x="640" y="1080" class="eq">Remove if Redundancy &gt; threshold</text> </g> <!-- Robustness & Fault Tolerance --> <g> <rect x="1180" y="700" width="580" height="510" fill="url(#gRobust)" class="box"/> <text x="1470" y="730" text-anchor="middle" class="section">Robustness &amp; Fault Tolerance</text> <text x="1200" y="755" class="sub">Resilience</text> <text x="1200" y="775" class="eq">R = 1 - S_largest / N (after removing fraction f)</text> <text x="1200" y="800" class="sub">Cascading Failure Prevention</text> <text x="1200" y="820" class="eq">C_capacity,i = (1 + α) L_initial,i , α=0.3±0.05</text> <text x="1200" y="845" class="sub">Self-Healing Algorithm</text> <rect x="1200" y="865" width="540" height="180" class="panel" fill="#ffffffcc"/> <text x="1215" y="885" class="mini">1. Detect failures F</text> <text x="1215" y="900" class="mini">2. Isolate: G_isolated = G \ F</text> <text x="1215" y="915" class="mini">3. Evaluate connectivity C_remaining</text> <text x="1215" y="930" class="mini">4. If C_remaining &lt; C_min: activate backups</text> <text x="1215" y="945" class="mini">5. Reroute + reintegrate</text> <text x="1215" y="960" class="mini">6. Validate recovered state</text> <text x="1215" y="975" class="mini">7. Update global config</text> <text x="1200" y="1070" class="sub">Security & Integrity</text> <text x="1200" y="1090" class="eq">M_encrypted = E_public(M_original ⊕ H(K_session))</text> <text x="1200" y="1110" class="eq">Byzantine: n ≥ 3f + 1</text> <text x="1200" y="1130" class="eq">Integrity: hash(S) → compare → recover if mismatch</text> </g> <!-- Scalability & Performance --> <g> <rect x="40" y="1230" width="840" height="470" fill="url(#gScale2)" class="box"/> <text x="460" y="1260" text-anchor="middle" class="section">Scalability &amp; Performance</text> <text x="60" y="1290" class="sub">Growth Laws</text> <text x="60" y="1310" class="eq">N(t) = N₀ e^{λ t}, λ=0.034±0.004 day^{-1}</text> <text x="60" y="1330" class="eq">E(t) = α N(t)^β, β=1.47±0.08</text> <text x="60" y="1350" class="eq">C(t) = γ N(t)^δ, δ=1.23±0.05</text> <text x="60" y="1380" class="sub">Performance Scaling</text> <text x="60" y="1400" class="eq">P_network(N)=P₀ N^α (log N)^β e^{ -γ N / N_critical }</text> <text x="60" y="1420" class="mini">N_critical = 10^6 ± 10^5 nodes (threshold)</text> <text x="60" y="1450" class="sub">Resource Scaling (Sample)</text> <rect x="60" y="1470" width="760" height="100" class="panel" fill="#ffffffcc"/> <text x="75" y="1490" class="mini">Nodes: 10^3 → Mem 2.3±0.3 GB | CPU 8±2 | BW 0.47±0.08 Gbps</text> <text x="75" y="1508" class="mini">10^4 → 34±5 GB | 67±12 cores | 4.7±0.8 Gbps</text> <text x="75" y="1526" class="mini">10^5 → 347±47 GB | 456±67 cores | 23±4 Gbps</text> <text x="75" y="1544" class="mini">10^6 → 2.3±0.4×10^3 GB | 2.3±0.4×10^3 cores | 127±23 Gbps</text> <text x="60" y="1575" class="sub">Scaling Targets</text> <text x="60" y="1595" class="eq">N_max &gt; 10^9, T_response &lt; 1 μs, η_coordination &gt; 99.9%</text> </g> <!-- Integration & Downstream Systems --> <g> <rect x="910" y="1230" width="850" height="470" fill="url(#gSec)" class="box"/> <text x="1335" y="1260" text-anchor="middle" class="section">Downstream Integration</text> <text x="930" y="1290" class="sub">Masunda Temporal Navigator</text> <text x="930" y="1310" class="mini">N_oscillators ≥ 10^6; σ_timing &lt; 10^{-30} s; Δf/f &lt; 10^{-15}</text> <text x="930" y="1335" class="sub">Buhera Foundry</text> <text x="930" y="1355" class="mini">N_substrates ≥ 10^4; η_recognition &gt; 0.999; R_production &gt; 10^3 / hour</text> <text x="930" y="1380" class="sub">Kambuzuma Integration</text> <text x="930" y="1400" class="mini">N_quantum ≥ 10^5; T_coherence &gt; 50 μs; T=298 K; pH=7.4</text> <rect x="930" y="1425" width="810" height="180" class="panel" fill="#ffffffcc"/> <text x="945" y="1445" class="small h">Security / Integrity Supplement</text> <text x="945" y="1465" class="mini">• Encryption pipeline: session key hashing + public key wrap</text> <text x="945" y="1483" class="mini">• Byzantine tolerance: n ≥ 3f+1 ensures consensus safety</text> <text x="945" y="1501" class="mini">• Integrity verification: hash diff triggers forensic + rollback</text> <text x="945" y="1519" class="mini">• Tiered escalation: soft (retrain) → hard (isolation)</text> <text x="930" y="1625" class="sub">Interface Synchronization</text> <text x="930" y="1645" class="eq">Cross-layer clocks aligned via integer phase constraint</text> </g> <!-- Future Developments --> <g> <rect x="40" y="1720" width="1720" height="310" fill="url(#gFuture)" class="box"/> <text x="900" y="1750" text-anchor="middle" class="section">Future Developments</text> <rect x="60" y="1780" width="520" height="220" class="panel" fill="#ffffffcc"/> <text x="75" y="1800" class="sub">Next-Generation Architectures</text> <text x="75" y="1825" class="bullet">• Quantum-enhanced coordination across all scales</text> <text x="75" y="1845" class="bullet">• Neuromorphic integration for adaptive recognition</text> <text x="75" y="1865" class="bullet">• 4D temporal topology evolution</text> <text x="75" y="1885" class="bullet">• Consciousness-network interface pathways</text> <rect x="610" y="1780" width="520" height="220" class="panel" fill="#ffffffcc"/> <text x="625" y="1800" class="sub">Protocol Enhancements</text> <text x="625" y="1825" class="bullet">Predictive coordination (historical inference)</text> <text x="625" y="1845" class="bullet">Adaptive reinforcement learning topology</text> <text x="625" y="1865" class="bullet">Multi-objective performance optimization</text> <text x="625" y="1885" class="bullet">Autonomic scaling triggers</text> <rect x="1160" y="1780" width="520" height="220" class="panel" fill="#ffffffcc"/> <text x="1175" y="1800" class="sub">Scalability Improvements</text> <text x="1175" y="1825" class="bullet">• Target: N &gt; 10^9 nodes</text> <text x="1175" y="1845" class="bullet">• Sub-μs coordination latency</text> <text x="1175" y="1865" class="bullet">• η_coordination &gt; 99.9%</text> <text x="1175" y="1885" class="bullet">• Energy-aware cross-layer scheduling</text> </g> <!-- Summary / Conclusion --> <g> <rect x="40" y="2050" width="1720" height="310" class="box" fill="#ffffff"/> <text x="900" y="2085" text-anchor="middle" class="section">Conclusion</text> <text x="60" y="2115" class="small">Tri-scale Biological Maxwell Demon coordination unifies quantum precision, molecular adaptability, and environmental stability to enable high-efficiency molecular manufacturing.</text> <text x="60" y="2140" class="small">Sustained coordination: ≥92% efficiency; inter-layer transfer up to 2.3 Gbps; coherent quantum operations preserved at biologically compatible conditions.</text> <text x="60" y="2165" class="small">Adaptive topology + fault tolerance + security compose a resilient substrate supporting temporal navigation, quantum foundry integration, and consciousness-aligned computation.</text> <text x="60" y="2190" class="small">Scalability projections validate feasibility through 10^6 nodes; future pathways extend toward 10^9 nodes with enhanced neuromorphic and quantum-entangled control layers.</text> <text x="60" y="2215" class="small">Foundation established for large-scale biological Maxwell demon deployment across advanced computational and manufacturing domains.</text> <text x="900" y="2260" text-anchor="middle" class="cap">Diagram synthesized from provided specification: formulas, metrics, scaling laws, protocols, and future directions consolidated into a single architectural map.</text> </g> <!-- Cross-layer arrows --> <g stroke="#444" stroke-width="2" marker-end="url(#arrow)"> <line x1="980" y1="420" x2="1010" y2="420"/> <line x1="1370" y1="420" x2="1400" y2="420"/> <line x1="890" y1="680" x2="890" y2="660"/> <line x1="1470" y1="680" x2="1470" y2="660"/> <line x1="315" y1="460" x2="315" y2="480"/> </g> <!-- Legend --> <g> <rect x="40" y="2380" width="1720" height="50" rx="12" fill="#f4f7fa" stroke="#ccc"/> <text x="60" y="2410" class="mini">Legend: Colors group conceptual layers (quantum / molecular / environmental / coordination / topology / scaling / security / future). Equations shown in monospaced font; performance metrics derived from provided values; arrows indicate directional dependency or synchronization flow.</text> </g> </svg>