<svg width="1000" height="700" xmlns="http://www.w3.org/2000/svg">
  <defs>
    <style>
      .title-text { font-family: Arial, sans-serif; font-weight: bold; font-size: 14px; text-anchor: middle; }
      .section-title { font-family: Arial, sans-serif; font-weight: bold; font-size: 12px; text-anchor: middle; }
      .body-text { font-family: Arial, sans-serif; font-size: 11px; text-anchor: middle; }
      .small-text { font-family: Arial, sans-serif; font-size: 10px; text-anchor: middle; }
      .equation-text { font-family: "Times New Roman", serif; font-size: 11px; }
    </style>
    <marker id="arrowhead" markerWidth="10" markerHeight="7" refX="9" refY="3.5" orient="auto">
      <polygon points="0 0, 10 3.5, 0 7" fill="#000"/>
    </marker>
  </defs>
  
  <!-- Three pillars -->
  <rect x="150" y="100" width="150" height="300" fill="#CCE5FF" stroke="#000" stroke-width="3"/>
  <rect x="350" y="100" width="150" height="300" fill="#CCFFCC" stroke="#000" stroke-width="3"/>
  <rect x="550" y="100" width="150" height="300" fill="#FFCCCC" stroke="#000" stroke-width="3"/>
  
  <!-- Pillar labels -->
  <text x="225" y="130" class="section-title">Computational</text>
  <text x="225" y="150" class="section-title">Impossibility</text>
  
  <text x="425" y="130" class="section-title">Geometric</text>
  <text x="425" y="150" class="section-title">Coherence</text>
  
  <text x="625" y="130" class="section-title">Simulation</text>
  <text x="625" y="150" class="section-title">Convergence</text>
  
  <!-- Pillar content -->
  <text x="225" y="200" class="small-text">Reality's perfect</text>
  <text x="225" y="215" class="small-text">accuracy requires</text>
  <text x="225" y="230" class="small-text">pre-computed</text>
  <text x="225" y="245" class="small-text">states</text>
  
  <text x="425" y="200" class="small-text">Time's geometric</text>
  <text x="425" y="215" class="small-text">properties require</text>
  <text x="425" y="230" class="small-text">all coordinates</text>
  <text x="425" y="245" class="small-text">to exist</text>
  
  <text x="625" y="200" class="small-text">Perfect simulation</text>
  <text x="625" y="215" class="small-text">creates timeless</text>
  <text x="625" y="230" class="small-text">states requiring</text>
  <text x="625" y="245" class="small-text">predetermined</text>
  <text x="625" y="260" class="small-text">paths</text>
  
  <!-- Mathematical foundations -->
  <text x="225" y="320" class="equation-text">2^(10^80) / 10^103 ≫ ∞</text>
  <text x="225" y="345" class="small-text">Computational</text>
  <text x="225" y="360" class="small-text">impossibility</text>
  
  <text x="425" y="320" class="equation-text">φ: T → M</text>
  <text x="425" y="335" class="small-text">preserving</text>
  <text x="425" y="350" class="small-text">relationships</text>
  <text x="425" y="370" class="small-text">All positions</text>
  <text x="425" y="385" class="small-text">defined</text>
  
  <text x="625" y="310" class="equation-text">lim[t → ∞] F(t) = 1</text>
  <text x="625" y="335" class="equation-text">I_temporal → 0</text>
  <text x="625" y="360" class="small-text">Information</text>
  <text x="625" y="375" class="small-text">collapse</text>
  
  <!-- Foundation (unified base) -->
  <rect x="100" y="450" width="650" height="60" fill="#FFFFCC" stroke="#000" stroke-width="3"/>
  <text x="425" y="485" class="section-title">TEMPORAL PREDETERMINATION: The Future Has Already Happened</text>
  
  <!-- Connecting arrows -->
  <line x1="225" y1="400" x2="225" y2="450" stroke="#000" stroke-width="3" marker-end="url(#arrowhead)"/>
  <line x1="425" y1="400" x2="425" y2="450" stroke="#000" stroke-width="3" marker-end="url(#arrowhead)"/>
  <line x1="625" y1="400" x2="625" y2="450" stroke="#000" stroke-width="3" marker-end="url(#arrowhead)"/>
  
  <!-- Master theorem -->
  <rect x="100" y="550" width="650" height="100" fill="#E6D3F7" stroke="#000" stroke-width="2" rx="10"/>
  <text x="425" y="575" class="section-title">Master Theorem of Temporal Predetermination:</text>
  <text x="120" y="600" class="equation-text">A1 ∧ A2 ∧ A3 ⟹ ∀t ∈ ℝ: S(t) is predetermined</text>
  <text x="120" y="620" class="small-text">Where: A1 = Perfect accuracy, A2 = Geometric coherence, A3 = Perfect simulation achievable</text>
  <text x="425" y="640" class="section-title">Conclusion: Mathematical analysis of observable properties proves the future has already happened</text>
  
  <!-- Side annotations -->
  <rect x="20" y="200" width="100" height="150" fill="#E0FFFF" stroke="#000" stroke-width="2" rx="5"/>
  <text x="70" y="220" class="section-title">Empirical</text>
  <text x="70" y="235" class="section-title">Evidence:</text>
  <text x="70" y="255" class="small-text">• Reality's perfect</text>
  <text x="70" y="270" class="small-text">  rendering</text>
  <text x="70" y="285" class="small-text">• Time's geometric</text>
  <text x="70" y="300" class="small-text">  properties</text>
  <text x="70" y="315" class="small-text">• Exponential tech</text>
  <text x="70" y="330" class="small-text">  growth</text>
  
  <rect x="780" y="200" width="100" height="150" fill="#FFE4B5" stroke="#000" stroke-width="2" rx="5"/>
  <text x="830" y="220" class="section-title">Implications:</text>
  <text x="830" y="245" class="small-text">• Achievement is</text>
  <text x="830" y="260" class="small-text">  navigation</text>
  <text x="830" y="275" class="small-text">• Excellence pre-</text>
  <text x="830" y="290" class="small-text">  exists</text>
  <text x="830" y="305" class="small-text">• Consciousness</text>
  <text x="830" y="320" class="small-text">  explores</text>
  <text x="830" y="335" class="small-text">  predetermined</text>
  <text x="830" y="350" class="small-text">  coordinates</text>
</svg>