<svg width="800" height="400" xmlns="http://www.w3.org/2000/svg">
  <text x="400" y="30" text-anchor="middle" font-weight="bold">Virtual Processors at Temporal Precision</text>
  
  <!-- Virtual processor array -->
  <circle cx="150" cy="100" r="8" fill="none" stroke="black" stroke-width="2"/>
  <circle cx="200" cy="100" r="8" fill="none" stroke="black" stroke-width="2"/>
  <circle cx="250" cy="100" r="8" fill="none" stroke="black" stroke-width="2"/>
  <circle cx="300" cy="100" r="8" fill="none" stroke="black" stroke-width="2"/>
  <circle cx="350" cy="100" r="8" fill="none" stroke="black" stroke-width="2"/>
  <circle cx="400" cy="100" r="8" fill="none" stroke="black" stroke-width="2"/>
  <circle cx="450" cy="100" r="8" fill="none" stroke="black" stroke-width="2"/>
  <circle cx="500" cy="100" r="8" fill="none" stroke="black" stroke-width="2"/>
  <circle cx="550" cy="100" r="8" fill="none" stroke="black" stroke-width="2"/>
  <circle cx="600" cy="100" r="8" fill="none" stroke="black" stroke-width="2"/>
  <circle cx="650" cy="100" r="8" fill="none" stroke="black" stroke-width="2"/>
  
  <circle cx="150" cy="150" r="8" fill="none" stroke="black" stroke-width="2"/>
  <circle cx="200" cy="150" r="8" fill="none" stroke="black" stroke-width="2"/>
  <circle cx="250" cy="150" r="8" fill="none" stroke="black" stroke-width="2"/>
  <circle cx="300" cy="150" r="8" fill="none" stroke="black" stroke-width="2"/>
  <circle cx="350" cy="150" r="8" fill="none" stroke="black" stroke-width="2"/>
  <circle cx="400" cy="150" r="8" fill="none" stroke="black" stroke-width="2"/>
  <circle cx="450" cy="150" r="8" fill="none" stroke="black" stroke-width="2"/>
  <circle cx="500" cy="150" r="8" fill="none" stroke="black" stroke-width="2"/>
  <circle cx="550" cy="150" r="8" fill="none" stroke="black" stroke-width="2"/>
  <circle cx="600" cy="150" r="8" fill="none" stroke="black" stroke-width="2"/>
  <circle cx="650" cy="150" r="8" fill="none" stroke="black" stroke-width="2"/>
  
  <circle cx="150" cy="200" r="8" fill="none" stroke="black" stroke-width="2"/>
  <circle cx="200" cy="200" r="8" fill="none" stroke="black" stroke-width="2"/>
  <circle cx="250" cy="200" r="8" fill="none" stroke="black" stroke-width="2"/>
  <circle cx="300" cy="200" r="8" fill="none" stroke="black" stroke-width="2"/>
  <circle cx="350" cy="200" r="8" fill="none" stroke="black" stroke-width="2"/>
  <circle cx="400" cy="200" r="8" fill="none" stroke="black" stroke-width="2"/>
  <circle cx="450" cy="200" r="8" fill="none" stroke="black" stroke-width="2"/>
  <circle cx="500" cy="200" r="8" fill="none" stroke="black" stroke-width="2"/>
  <circle cx="550" cy="200" r="8" fill="none" stroke="black" stroke-width="2"/>
  <circle cx="600" cy="200" r="8" fill="none" stroke="black" stroke-width="2"/>
  <circle cx="650" cy="200" r="8" fill="none" stroke="black" stroke-width="2"/>
  
  <!-- Traditional processor (small) -->
  <circle cx="80" cy="280" r="4" fill="black"/>
  <text x="80" y="300" text-anchor="middle" font-size="10">3 GHz</text>
  <text x="80" y="315" text-anchor="middle" font-size="10">Traditional</text>
  
  <!-- Interconnection lines -->
  <line x1="150" y1="100" x2="200" y2="100" stroke="black" stroke-width="1"/>
  <line x1="200" y1="100" x2="250" y2="100" stroke="black" stroke-width="1"/>
  <line x1="250" y1="100" x2="300" y2="100" stroke="black" stroke-width="1"/>
  <line x1="300" y1="100" x2="350" y2="100" stroke="black" stroke-width="1"/>
  <line x1="350" y1="100" x2="400" y2="100" stroke="black" stroke-width="1"/>
  <line x1="400" y1="100" x2="450" y2="100" stroke="black" stroke-width="1"/>
  <line x1="450" y1="100" x2="500" y2="100" stroke="black" stroke-width="1"/>
  <line x1="500" y1="100" x2="550" y2="100" stroke="black" stroke-width="1"/>
  <line x1="550" y1="100" x2="600" y2="100" stroke="black" stroke-width="1"/>
  <line x1="600" y1="100" x2="650" y2="100" stroke="black" stroke-width="1"/>
  
  <line x1="150" y1="100" x2="150" y2="150" stroke="black" stroke-width="1"/>
  <line x1="200" y1="100" x2="200" y2="150" stroke="black" stroke-width="1"/>
  <line x1="250" y1="100" x2="250" y2="150" stroke="black" stroke-width="1"/>
  <line x1="300" y1="100" x2="300" y2="150" stroke="black" stroke-width="1"/>
  <line x1="350" y1="100" x2="350" y2="150" stroke="black" stroke-width="1"/>
  <line x1="400" y1="100" x2="400" y2="150" stroke="black" stroke-width="1"/>
  <line x1="450" y1="100" x2="450" y2="150" stroke="black" stroke-width="1"/>
  <line x1="500" y1="100" x2="500" y2="150" stroke="black" stroke-width="1"/>
  <line x1="550" y1="100" x2="550" y2="150" stroke="black" stroke-width="1"/>
  <line x1="600" y1="100" x2="600" y2="150" stroke="black" stroke-width="1"/>
  <line x1="650" y1="100" x2="650" y2="150" stroke="black" stroke-width="1"/>
  
  <!-- Performance comparison -->
  <rect x="200" y="250" width="400" height="100" fill="none" stroke="black" stroke-width="1"/>
  <text x="400" y="270" text-anchor="middle" font-weight="bold">Processing Rates:</text>
  <text x="400" y="290" text-anchor="middle" font-size="12">Traditional: 3 × 10^9 ops/sec</text>
  <text x="400" y="310" text-anchor="middle" font-size="12">Virtual: 10^30 ops/sec</text>
  <text x="400" y="330" text-anchor="middle" font-size="12" font-weight="bold">Speedup: 10^21 ×</text>
  
  <!-- Infinity indication -->
  <line x1="670" y1="150" x2="720" y2="150" stroke="black" stroke-width="2" marker-end="url(#arrowhead)"/>
  <text x="750" y="155" font-size="16">∞</text>
  
  <defs>
    <marker id="arrowhead" markerWidth="10" markerHeight="7" refX="9" refY="3.5" orient="auto">
      <polygon points="0 0, 10 3.5, 0 7" fill="black"/>
    </marker>
  </defs>
</svg>
