<svg width="800" height="400" xmlns="http://www.w3.org/2000/svg">
  <!-- Split screen -->
  <rect x="50" y="50" width="300" height="300" fill="none" stroke="black" stroke-width="2"/>
  <rect x="450" y="50" width="300" height="300" fill="none" stroke="black" stroke-width="2"/>
  
  <!-- Left side: Traditional -->
  <text x="200" y="40" text-anchor="middle" font-weight="bold">Traditional Computation</text>
  <rect x="150" y="80" width="100" height="30" fill="none" stroke="black" stroke-width="2"/>
  <text x="200" y="100" text-anchor="middle" font-size="12">CPU</text>
  
  <!-- Computation steps -->
  <rect x="100" y="140" width="200" height="25" fill="none" stroke="black" stroke-width="1"/>
  <text x="200" y="157" text-anchor="middle" font-size="10">Input</text>
  <line x1="200" y1="165" x2="200" y2="185" stroke="black" stroke-width="2" marker-end="url(#arrowhead)"/>
  
  <rect x="100" y="190" width="200" height="25" fill="none" stroke="black" stroke-width="1"/>
  <text x="200" y="207" text-anchor="middle" font-size="10">Process</text>
  <line x1="200" y1="215" x2="200" y2="235" stroke="black" stroke-width="2" marker-end="url(#arrowhead)"/>
  
  <rect x="100" y="240" width="200" height="25" fill="none" stroke="black" stroke-width="1"/>
  <text x="200" y="257" text-anchor="middle" font-size="10">Calculate</text>
  <line x1="200" y1="265" x2="200" y2="285" stroke="black" stroke-width="2" marker-end="url(#arrowhead)"/>
  
  <rect x="100" y="290" width="200" height="25" fill="none" stroke="black" stroke-width="1"/>
  <text x="200" y="307" text-anchor="middle" font-size="10">Output</text>
  
  <text x="200" y="340" text-anchor="middle" font-size="12" font-weight="bold">Time: 2.3 seconds</text>
  
  <!-- Right side: Zero computation -->
  <text x="600" y="40" text-anchor="middle" font-weight="bold">Zero Computation Navigation</text>
  
  <!-- Eternal manifold grid -->
  <g id="grid">
    <circle cx="480" cy="100" r="2" fill="black"/>
    <circle cx="520" cy="100" r="2" fill="black"/>
    <circle cx="560" cy="100" r="2" fill="black"/>
    <circle cx="600" cy="100" r="2" fill="black"/>
    <circle cx="640" cy="100" r="2" fill="black"/>
    <circle cx="680" cy="100" r="2" fill="black"/>
    <circle cx="720" cy="100" r="2" fill="black"/>
    
    <circle cx="480" cy="140" r="2" fill="black"/>
    <circle cx="520" cy="140" r="2" fill="black"/>
    <circle cx="560" cy="140" r="2" fill="black"/>
    <circle cx="600" cy="140" r="2" fill="black"/>
    <circle cx="640" cy="140" r="2" fill="black"/>
    <circle cx="680" cy="140" r="2" fill="black"/>
    <circle cx="720" cy="140" r="2" fill="black"/>
    
    <circle cx="480" cy="180" r="2" fill="black"/>
    <circle cx="520" cy="180" r="2" fill="black"/>
    <circle cx="560" cy="180" r="2" fill="black"/>
    <circle cx="600" cy="180" r="2" fill="black"/>
    <circle cx="640" cy="180" r="2" fill="black"/>
    <circle cx="680" cy="180" r="2" fill="black"/>
    <circle cx="720" cy="180" r="2" fill="black"/>
    
    <circle cx="480" cy="220" r="2" fill="black"/>
    <circle cx="520" cy="220" r="2" fill="black"/>
    <circle cx="560" cy="220" r="2" fill="black"/>
    <circle cx="600" cy="220" r="2" fill="black"/>
    <circle cx="640" cy="220" r="2" fill="black"/>
    <circle cx="680" cy="220" r="2" fill="black"/>
    <circle cx="720" cy="220" r="2" fill="black"/>
  </g>
  
  <!-- Input and result coordinates -->
  <circle cx="520" cy="140" r="5" fill="black"/>
  <text x="520" y="130" text-anchor="middle" font-size="10">Input</text>
  <circle cx="680" cy="220" r="5" fill="black"/>
  <text x="680" y="240" text-anchor="middle" font-size="10">Result</text>
  
  <!-- Navigation beam -->
  <line x1="520" y1="140" x2="680" y2="220" stroke="black" stroke-width="3" marker-end="url(#arrowhead)"/>
  <text x="600" y="170" text-anchor="middle" font-size="10">Direct Navigation</text>
  
  <text x="600" y="280" text-anchor="middle" font-size="10">Eternal Oscillatory Manifold</text>
  <text x="600" y="340" text-anchor="middle" font-size="12" font-weight="bold">Time: 0.0001 seconds</text>
  
  <!-- Central divider -->
  <line x1="400" y1="50" x2="400" y2="350" stroke="black" stroke-width="3"/>
  
  <defs>
    <marker id="arrowhead" markerWidth="10" markerHeight="7" refX="9" refY="3.5" orient="auto">
      <polygon points="0 0, 10 3.5, 0 7" fill="black"/>
    </marker>
  </defs>
</svg>
